<svg xmlns="http://www.w3.org/2000/svg" viewBox="0 0 623.62 255.12"><defs><style>.cls-1{fill:#fff;}.cls-2{fill:#f5de19;}</style></defs><g id="BG"><rect class="cls-1" width="623.62" height="255.12"/></g><g id="Logo"><g id="layer101"><path d="M304.54,240.91a115,115,0,0,1-42.45-11.28,113.64,113.64,0,0,1-62.15-82.71c-1.31-7.64-1.5-10.17-1.5-19.38s.19-11.74,1.5-19.38a113.67,113.67,0,0,1,92.49-92.49c7.64-1.31,10.18-1.49,19.38-1.49,9,0,11.67.18,18.76,1.36a113.36,113.36,0,0,1,55.32,26,149.52,149.52,0,0,1,12.2,12.21,113.94,113.94,0,0,1,25.72,55.07c1.18,7.08,1.37,9.75,1.37,18.75s-.19,11.67-1.37,18.76a113.73,113.73,0,0,1-92.51,93.13,96.66,96.66,0,0,1-18.11,1.5C309.06,241,305.19,241,304.54,240.91Z"/></g><g id="layer102"><path class="cls-2" d="M304.54,240.91a115,115,0,0,1-42.45-11.28,113.64,113.64,0,0,1-62.15-82.71c-1.31-7.64-1.5-10.17-1.5-19.38s.19-11.74,1.5-19.38a113.67,113.67,0,0,1,92.49-92.49c7.64-1.31,10.18-1.49,19.38-1.49,9,0,11.67.18,18.76,1.36a113.36,113.36,0,0,1,55.32,26,149.52,149.52,0,0,1,12.2,12.21,113.94,113.94,0,0,1,25.72,55.07c1.18,7.08,1.37,9.75,1.37,18.75s-.19,11.67-1.37,18.76a113.73,113.73,0,0,1-92.51,93.13,96.66,96.66,0,0,1-18.11,1.5C309.06,241,305.19,241,304.54,240.91Zm-70-90.88V148.3l-1.09,0c-2.84,0-3.57-1-3.62-4.54,0-1.23,0-4.41.09-7.09.12-5.21,0-6-1.06-7.4a5,5,0,0,0-1.61-1.22l-1.09-.51,1.15-.56a4.58,4.58,0,0,0,1.62-1.17c1-1.43,1.11-2.24,1-7.36-.16-7.2-.11-9.09.3-10.11s1.45-1.54,3.16-1.54h1.16v-3.51l-2.93.09c-3.49.1-4.78.56-5.77,2.06-1.25,1.89-1.43,4.24-1,11.74a39.07,39.07,0,0,1,.09,5.12,4.34,4.34,0,0,1-3.94,3.18h-.81v3.88l1.2.25a4.14,4.14,0,0,1,3.21,2.24c.48,1,.48,1.2.3,4.66-.12,2-.21,5.19-.21,7.08,0,4.11.3,5.31,1.73,6.69,1.15,1.14,2.42,1.46,5.61,1.48l2.47,0Zm160.33,1.48c3.51-.78,4.57-3.6,4.11-10.89-.37-6-.35-8,.11-8.86a4.58,4.58,0,0,1,3.12-2.17l1.2-.25v-3.88h-.76a4.87,4.87,0,0,1-3.3-1.77c-.72-1.06-.83-2.22-.56-5.79.37-4.73.35-9.39-.07-10.73a5.42,5.42,0,0,0-2.53-3.21c-.83-.43-1.43-.53-4-.6l-3.07-.09v3.46l1.62.09c1.27.07,1.71.19,2.17.63,1,.92,1.11,2.1.92,8.93-.18,7.17-.07,8.14,1.22,9.57a4.63,4.63,0,0,0,1.6,1.13c.43.14.78.35.76.41a3.53,3.53,0,0,1-1.2.74A3.25,3.25,0,0,0,394.4,130l-.58,1.16v7.49c0,8.36,0,8.56-1.5,9.28a5.23,5.23,0,0,1-2,.41h-1.23v3.46h2.38A19.55,19.55,0,0,0,394.86,151.51Zm-148.22-8.28a3.91,3.91,0,0,0,1.84-3.69,5.44,5.44,0,0,0-.41-2.24,4.22,4.22,0,0,0-7.2-.21,5.7,5.7,0,0,0-.32,4.22A4.24,4.24,0,0,0,246.64,143.23Zm15.45,0a3.91,3.91,0,0,0,1.85-3.69,5.26,5.26,0,0,0-.42-2.24,4.21,4.21,0,0,0-7.19-.21,5.66,5.66,0,0,0-.33,4.22A4.25,4.25,0,0,0,262.09,143.23Zm15.46,0a3.91,3.91,0,0,0,1.85-3.69,5.42,5.42,0,0,0-.42-2.24,4.22,4.22,0,0,0-7.2-.21,5.7,5.7,0,0,0-.32,4.22A4.24,4.24,0,0,0,277.55,143.23Zm33.61,0a9.51,9.51,0,0,0,5.56-4.89c1.25-2.54,1.32-3.28,1.32-18.25V106.32H311.6l-.07,14c-.07,13.73-.07,14-.55,15-.92,1.94-2.31,2.77-4.71,2.77a6.41,6.41,0,0,1-5.33-3.23l-.37-.55-2,1.5c-1.13.81-2.14,1.54-2.26,1.61-.57.4,2.86,4.13,4.59,5a17.35,17.35,0,0,0,4.13,1.29A18.92,18.92,0,0,0,311.16,143.25Zm31.45.07a14.34,14.34,0,0,0,5.81-3.25,10.14,10.14,0,0,0-.09-14.37c-1.48-1.37-3-2.17-7.82-4.18-4.41-1.82-5.12-2.17-6.05-3.07a3.65,3.65,0,0,1-1.43-2.77c0-3.07,3.05-4.82,7.41-4.27a11.72,11.72,0,0,1,5.26,2.15,8.68,8.68,0,0,0,1.29.78s.74-.94,1.57-2a17.53,17.53,0,0,0,1.55-2.12,16.11,16.11,0,0,0-3.46-2.61,17.21,17.21,0,0,0-11-1.71,12,12,0,0,0-8.28,6c-.62,1.29-.67,1.57-.67,4s.05,2.74.74,4.17c1.47,3,3.34,4.32,10.33,7.29,4.06,1.73,5.17,2.35,6,3.3a4.42,4.42,0,0,1-2.42,7,13.56,13.56,0,0,1-6.05,0,16.19,16.19,0,0,1-5.23-2.63,8.56,8.56,0,0,0-1.41-1,32,32,0,0,0-3.12,3.44l-.62.74.55.6c1.9,2,6.33,4.1,10,4.7A24.85,24.85,0,0,0,342.61,143.32Zm22-5.54v-5.46l2.58-3.21c2-2.54,2.63-3.14,2.84-2.91s2.42,4.06,5.08,8.68l4.77,8.35h3.56c2,0,3.55,0,3.55-.09s-2.49-4.32-5.56-9.51-6-10.24-6.6-11.21l-1-1.78,5.65-7.15,5.67-7.17h-7.26l-6.44,8.19c-3.53,4.5-6.51,8.26-6.62,8.32a72.58,72.58,0,0,1-.21-8.19v-8.32H358v36.91h6.69Z"/></g></g></svg>