<svg xmlns="http://www.w3.org/2000/svg" viewBox="0 0 623.62 255.12"><defs><style>.cls-1{fill:#fff;}.cls-2{fill:#d1348c;}</style></defs><g id="BG"><rect class="cls-1" width="623.62" height="255.12"/></g><g id="Logo"><path class="cls-2" d="M123,217.1a17.77,17.77,0,0,1-4.87-6.33A78.73,78.73,0,0,1,96.86,222.9h0c-7.46,2.63-13.41,2.71-17,.64-7.61-4.42-10.83-21.45-6.5-44.3q.78-4.05,1.77-8A243.23,243.23,0,0,0,107.81,176q4.2,5.91,8.56,11.42V166.13l-2.85-.17q-6.28-9.18-11.85-18.81T91.33,127.61q4.76-10,10.31-19.55h0l.66-1.12a17.94,17.94,0,0,1-4.11-3.81,17.47,17.47,0,0,1-2.75-5c-1,1.56-1.91,3.12-2.77,4.7Q89.1,109,85.82,115.41c-3-7.16-5.6-14.2-7.71-21,5.22-1.17,10.7-2.17,16.37-3a17.13,17.13,0,0,1,.4-2.86c.61-2.67,1.28-5.34,2-8-7.5,1-14.71,2.27-21.53,3.81-.64-2.48-1.19-5-1.67-7.47h0C69.09,53.62,72.11,36,79.73,31.64c6-3.47,17.38-.72,30.55,7.76a17.14,17.14,0,0,1,11.07-5C103,21.11,85.67,16.24,74.54,22.68,61.87,30.06,58.12,51.8,63.43,79c.53,2.7,1.13,5.37,1.8,8q-4.68,1.34-9,2.86c-25.69,9-42.08,23-42.08,37.53,0,15,17.61,30.1,44.35,39.24q3.25,1.11,6.56,2.06c-.72,2.85-1.35,5.7-1.9,8.65-5.08,26.71-1.11,47.93,11.49,55.18,11.83,6.82,30.94,1.08,50.28-14A15.65,15.65,0,0,1,123,217.1ZM85.78,139.8q3.3,6.34,6.88,12.54t7.61,12.46a222.17,222.17,0,0,1-22.35-3.6C80.06,154.28,82.71,147.1,85.78,139.8ZM67.86,158.68c-2-.58-4-1.2-6-1.9-11.83-4.05-21.6-9.3-28.28-15-6-5.16-9.06-10.28-9.06-14.43,0-8.82,13.17-20.09,35.12-27.74,2.76-1,5.55-1.84,8.35-2.63a248.63,248.63,0,0,0,11.82,30.63A252.13,252.13,0,0,0,67.86,158.68Z"/><path class="cls-2" d="M213.57,89.62h0c-2.57-.89-5.18-1.71-7.8-2.47.43-1.76.84-3.54,1.21-5.31C212.89,53.15,209,30,195.83,22.43c-11.07-6.38-28.31-1.35-46.45,12.2A17.1,17.1,0,0,1,159.66,40c13.39-9,25-12.09,31-8.64,8.11,4.69,11.28,23.57,6.17,48.34-.33,1.61-.7,3.22-1.08,4.83a232.66,232.66,0,0,0-23.44-4.13q.94,3.65,1.82,7.27a20.71,20.71,0,0,1,.54,3.5c6.35,1,12.48,2,18.28,3.34a217.89,217.89,0,0,1-7.76,20.88q-3.34-6.36-7-12.61h0c-1.28-2.22-2.59-4.4-3.92-6.58a17.41,17.41,0,0,1-6.18,9.83l1.13,1.91q5.53,9.51,10.46,19.46-4.86,10-10.42,19.62h0q-5.5,9.58-11.63,18.77c-1.59.12-3.19.22-4.76.31v24q5.34-6.73,10.59-14.34a240.35,240.35,0,0,0,32.78-5c.49,2,.95,4,1.32,5.87h0c2.43,12.26,2.77,23.34,1.16,32-1.44,7.78-4.34,13-7.94,15.06-7.28,4.21-22.46-.82-39.12-14.42a18.6,18.6,0,0,1-3.45,5.85,18.34,18.34,0,0,1-2.69,2.52c19.54,15.82,38.5,21.94,50.42,15,13-7.53,17.23-30.32,11.74-58-.41-2.12-1-4.28-1.45-6.48,1.54-.46,3-.93,4.51-1.41,27.8-9.21,45.9-24.11,45.9-39.34C256.69,112.76,239.77,98.64,213.57,89.62Zm-42.76,75q3.81-6.09,7.44-12.36t7-12.85h0a222.43,222.43,0,0,1,8.15,21.33A219.18,219.18,0,0,1,170.81,164.61Zm36.74-7.75h0c-1.33.44-2.69.87-4.08,1.28a242.38,242.38,0,0,0-12.28-30.73A242.92,242.92,0,0,0,203,97.14c2.48.72,4.89,1.48,7.21,2.28,22.44,7.72,36.14,19.14,36.14,27.94C246.33,136.73,231.55,148.91,207.55,156.86Z"/><path class="cls-2" d="M140,113.33a12.72,12.72,0,0,0-10-.39c-.1-.15-.19-.24-.18-.3.67-3.27-1.74-5.17-3.26-7.51a5.37,5.37,0,0,0-5.3-2.67c-3.09.14-6.19,0-9.28,0a10.13,10.13,0,0,1-10.11-10.14,10.9,10.9,0,0,1,.22-2c1.64-7.17,3.67-14.27,5.55-21.36,1.63-6.16,3.29-12.29,4.93-18.45,1.5-5.65,4.6-8.49,10.46-8.65,8.14-.21,16.27-.12,24.4.08a9.77,9.77,0,0,1,9.09,7.45c3.52,13.32,7.09,26.71,10.39,40.13A10.21,10.21,0,0,1,160,102.12a10.33,10.33,0,0,1-3.32.4c-3.42-.13-6.86-.07-10.27,0a3.18,3.18,0,0,0-1.91,1,16.38,16.38,0,0,0-1.9,2.33C141.05,107.93,138.69,109.83,140,113.33Zm-5.4-18.88h20.27c2,0,3.19-1,3.21-2.8s-1.17-2.85-3.28-2.85H114.28c-2,0-3.39,1.23-3.36,2.85s1.42,2.86,3.43,2.86Z"/><path class="cls-2" d="M123.76,163.81V125c0-6.42,4.6-11.16,10.81-11.16s10.85,4.75,10.85,11.17v77.77a10.93,10.93,0,0,1-9.57,11,10.76,10.76,0,0,1-11.93-8.89,11.5,11.5,0,0,1-.15-2.27Q123.74,183.22,123.76,163.81Z"/><path class="cls-2" d="M312.82,46.24q10.76,0,16.87,4.93t6.12,13.6a13.71,13.71,0,0,1-2.56,8.3,17.8,17.8,0,0,1-7.5,5.7c3.72,1.11,6.42,2.93,8,5.5a17.38,17.38,0,0,1,2.46,9.51V97a5.4,5.4,0,0,0,.83,3.23,3.63,3.63,0,0,0,2.73,1.36l1.57.22v7.61h-6.56q-6.21,0-8.72-3.34a13.93,13.93,0,0,1-2.52-8.63v-3.6a10.15,10.15,0,0,0-2.46-7.22,9.42,9.42,0,0,0-6.92-2.76H303.83v16.67l6.77,1.3v7.61H284.43v-7.61l6.73-1.3V55.18l-6.73-1.3V46.27h28.39Zm-9,27.86h8.77c3.53,0,6.17-.75,7.94-2.25a8.11,8.11,0,0,0,2.65-6.51,9,9,0,0,0-2.63-6.79c-1.75-1.69-4.34-2.54-7.74-2.54h-9Z"/><path class="cls-2" d="M368.32,110.35q-10.15,0-16.23-6.52T346,87.3V85.56q0-10.45,5.7-17.22t15.43-6.74q9.53,0,14.76,5.71t5.25,15.49v6.9h-28l-.08.26a12.19,12.19,0,0,0,3.1,7.61,9.71,9.71,0,0,0,7.49,3,24.66,24.66,0,0,0,7-.85,32.17,32.17,0,0,0,6.07-2.67l3.43,7.82a25.12,25.12,0,0,1-7.53,3.86A32.54,32.54,0,0,1,368.32,110.35Zm-1.13-39a6.57,6.57,0,0,0-5.55,2.7,13.93,13.93,0,0,0-2.52,7.06l.13.22h15.53V80.2a10.13,10.13,0,0,0-1.9-6.45,6.77,6.77,0,0,0-5.69-2.38Z"/><path class="cls-2" d="M423.09,109.43a23.19,23.19,0,0,1-.91-2.4,17.84,17.84,0,0,1-.6-2.5,17.48,17.48,0,0,1-5.49,4.21,16.63,16.63,0,0,1-7.4,1.61q-6.92,0-11-3.76t-4.06-10.22A11.62,11.62,0,0,1,399,86.17q5.3-3.61,15.54-3.6H421V78a7,7,0,0,0-2-5.25,8.17,8.17,0,0,0-5.78-1.9,13.3,13.3,0,0,0-3.86.51,9.8,9.8,0,0,0-2.74,1.18l-.82,5h-9.51V67.07a36.4,36.4,0,0,1,8-3.85,29,29,0,0,1,9.78-1.62q8.73,0,14.17,4.28t5.46,12.17V99.5a14.11,14.11,0,0,0,.15,1.83l3.86.52v7.61Zm-11-8.46a11,11,0,0,0,5.21-1.24,10,10,0,0,0,3.65-3.1V89.46H414.5c-2.69,0-4.76.64-6.12,1.91a5.91,5.91,0,0,0-2.08,4.54,4.64,4.64,0,0,0,1.54,3.72,6.27,6.27,0,0,0,4.27,1.34Z"/><path class="cls-2" d="M464.06,100.62a7.42,7.42,0,0,0,5.43-2,7,7,0,0,0,2-5.27h11.41l.13.26a14.64,14.64,0,0,1-5.33,11.92A20.14,20.14,0,0,1,464,110.31q-10.45,0-16.17-6.66t-5.71-17.06v-1.3q0-10.38,5.83-17.06t16.65-6.66a29.06,29.06,0,0,1,10.2,1.7A20.3,20.3,0,0,1,482.32,68l.17,12.55H472.27l-2.09-7.33a7.66,7.66,0,0,0-2.34-1.37,8.82,8.82,0,0,0-3.17-.55c-3.59,0-6.12,1.31-7.61,3.91a20.24,20.24,0,0,0-2.22,10.07v1.3q0,6.3,2,10.13C458.23,99.29,460.63,100.59,464.06,100.62Z"/><path class="cls-2" d="M507.55,51v11.5h8.25v8.89h-8.25V95.29a5.58,5.58,0,0,0,1.12,3.9,4.08,4.08,0,0,0,3.05,1.18,21.43,21.43,0,0,0,2.27-.12,18.37,18.37,0,0,0,2.2-.37l1.08,9.16a28.32,28.32,0,0,1-8.72,1.31q-6.57,0-10.09-3.61t-3.54-11.42V71.37H488V62.48h6.9V51Z"/><path class="cls-2" d="M349,131.17v7.61l-6.76,1.3V194.3H329.61L304.1,151.83h-.26v33.63l6.77,1.3v7.61H284.43v-7.61l6.73-1.3V140.11l-6.73-1.3V131.2h19.4l25.52,42.53h.26V140.11l-6.77-1.3V131.2H349Z"/><path class="cls-2" d="M353.39,170.45q0-10.47,5.89-17.21t16.25-6.66q10.41,0,16.29,6.66t5.88,17.22v1q0,10.58-5.88,17.24t-16.17,6.66q-10.47,0-16.33-6.66t-5.89-17.24Zm12.68,1q0,6.42,2.25,10.3t7.29,3.88a7.7,7.7,0,0,0,7.18-3.9q2.28-3.92,2.29-10.28v-1a20.07,20.07,0,0,0-2.31-10.2,8.57,8.57,0,0,0-14.45,0,20.38,20.38,0,0,0-2.25,10.2Z"/><path class="cls-2" d="M404.17,186.76l6.08-1.3V156.34l-6.73-1.3v-7.61h18.53l.56,6.85a15,15,0,0,1,4.25-5.7,9.57,9.57,0,0,1,6-2,15,15,0,0,1,2.11.15,14.27,14.27,0,0,1,1.84.37L435.5,158.6l-5.2-.12a8.91,8.91,0,0,0-4.61,1.08,7,7,0,0,0-2.77,3.09v22.83l6.08,1.3v7.61H404.17Z"/><path class="cls-2" d="M508.28,155l-4.75.6-9.81,38.72H483.16l-8.72-28h-.27l-8.72,28H454.91l-9.86-38.72-4.75-.6v-7.61h21.26V155l-5,1,4.49,21.49h.26l8.77-30.08h8.5l8.86,30.16h.25L492.07,156l-5-.95v-7.61H508.3Z"/><path class="cls-2" d="M542.53,194.36a18.69,18.69,0,0,1-.95-2.42,17.4,17.4,0,0,1-.61-2.49,17.54,17.54,0,0,1-5.49,4.22,16.58,16.58,0,0,1-7.4,1.59q-6.9,0-11-3.74t-4-10.23a11.62,11.62,0,0,1,5.29-10.2q5.29-3.59,15.54-3.59h6.46v-4.61a6.94,6.94,0,0,0-1.9-5.25q-2-1.9-5.78-1.9a14,14,0,0,0-3.86.49,10.55,10.55,0,0,0-2.73,1.2l-.83,5h-9.51V152a35.38,35.38,0,0,1,8-3.95,28.64,28.64,0,0,1,9.79-1.6q8.73,0,14.17,4.27t5.45,12.17v21.44a14,14,0,0,0,.15,1.83l3.86.51v7.61Zm-11-8.43a10.92,10.92,0,0,0,5.2-1.23,10.06,10.06,0,0,0,3.65-3.11v-7.16h-6.46c-2.7,0-4.74.64-6.13,1.9a5.94,5.94,0,0,0-2.08,4.54,4.78,4.78,0,0,0,1.54,3.74A6.3,6.3,0,0,0,531.55,185.93Z"/><path class="cls-2" d="M609.45,155l-4.38.65L587.8,201.35a25.3,25.3,0,0,1-5.45,8.51q-3.42,3.42-10.27,3.42a16,16,0,0,1-3-.26c-1-.17-2.05-.41-3.32-.74l1.47-9.23,1.27.17a8.32,8.32,0,0,0,1.12.08,7,7,0,0,0,4.86-1.54,10.19,10.19,0,0,0,2.61-3.8l1.43-3.56-14.88-38.67-4.39-.69v-7.61h23V155l-5.25.86,6.42,18.75.66,3.39.26,0,7.42-22.18-5.3-.86v-7.61h23Z"/></g></svg>