<svg xmlns="http://www.w3.org/2000/svg" viewBox="0 0 623.62 255.12"><defs><style>.cls-1{fill:#fff;}.cls-2{fill:#f16622;}.cls-3{fill:#1e459c;}.cls-4{fill:#1e459b;}.cls-5{isolation:isolate;}</style></defs><g id="BG"><rect class="cls-1" width="623.62" height="255.12"/></g><g id="Logo"><path class="cls-2" d="M128.27,212.57h0A11.67,11.67,0,0,0,139.89,201V54.08a11.67,11.67,0,0,0-11.62-11.62h0a11.67,11.67,0,0,0-11.62,11.62V200.85A11.69,11.69,0,0,0,128.27,212.57Z"/><path class="cls-2" d="M110.53,206.76A73.82,73.82,0,0,1,92,217.14h0c-7,2.49-12.65,2.59-16,.62-7.16-4.15-10.16-20.12-6.12-41.6.52-2.49,1-5.08,1.66-7.57A199.82,199.82,0,0,0,92.38,172a45,45,0,0,1-.42-5.29v-4.57c-6.32-.83-12.23-1.76-17.84-3A198.14,198.14,0,0,1,81.49,139c2.07,3.94,4.25,7.88,6.43,11.83,1.35,2.28,2.7,4.46,4,6.74V138.1c-1.86-3.43-3.63-6.95-5.29-10.38,1.66-3.52,3.43-7,5.29-10.47V97.64c-1.34,2.29-2.69,4.46-4,6.75-2.28,3.83-4.36,7.78-6.43,11.82-2.8-6.74-5.29-13.38-7.26-19.71,5.6-1.24,11.62-2.28,17.73-3.11V88.31a39.65,39.65,0,0,1,.32-5C85,84.26,78.07,85.51,71.53,87c-.62-2.28-1.14-4.67-1.55-7h0C65.72,58,68.52,41.53,75.68,37.38c6.53-3.73,19.71.31,34.54,11.31a18.72,18.72,0,0,1,5.19-8.3C98,27.53,81.38,22.76,70.81,28.87c-11.93,6.85-15.46,27.28-10.38,52.9.52,2.49,1,5.09,1.66,7.58-2.9.83-5.7,1.76-8.4,2.69-24.17,8.41-39.52,21.58-39.52,35.27,0,14.11,16.6,28.32,41.7,36.93,2.07.72,4,1.34,6.12,2-.62,2.69-1.25,5.39-1.76,8.09-4.78,25.1-1,45,10.78,51.86,10.58,6.12,27.49,1.45,44.81-11.2A19.1,19.1,0,0,1,110.53,206.76Zm-45.74-50c-1.87-.52-3.74-1.14-5.6-1.77-11.1-3.83-20.33-8.71-26.56-14.1-5.7-4.88-8.5-9.65-8.5-13.59,0-8.3,12.34-18.88,33-26.14,2.6-.93,5.19-1.76,7.89-2.49a258.78,258.78,0,0,0,11.09,28.84A211.42,211.42,0,0,0,64.79,156.77Z"/><path class="cls-2" d="M201.71,91.84c-2.39-.83-4.88-1.56-7.37-2.29.42-1.66.83-3.32,1.14-5,5.6-27,2-48.76-10.47-55.81-10.48-6-26.87-1.24-44.09,11.72a18.72,18.72,0,0,1,5.19,8.3c14.62-11.2,27.69-15.25,34-11.62h0c7.68,4.36,10.58,22.2,5.81,45.43-.31,1.56-.62,3-1,4.57a202.4,202.4,0,0,0-20.85-3.74,39.63,39.63,0,0,1,.31,5v5c6.23.83,12.24,2,17.85,3.22-2,6.32-4.46,12.86-7.27,19.6q-3.1-6.06-6.53-11.82c-1.35-2.29-2.7-4.46-4-6.75v19.5c1.87,3.43,3.64,7,5.4,10.38-1.76,3.52-3.53,7-5.4,10.58v19.6l4-6.84c2.28-4,4.46-8,6.64-12,3,7,5.6,13.69,7.67,20a181,181,0,0,1-18.36,3.22v4.77a27.37,27.37,0,0,1-.41,5.08,208.2,208.2,0,0,0,21.37-3.73c.41,1.86.83,3.73,1.24,5.49,2.28,11.52,2.6,22,1.14,30.09-1.35,7.36-4,12.23-7.47,14.1-6.43,3.74-19.5-.31-34.12-11.51a18.83,18.83,0,0,1-5.19,8.3c17.22,13.07,33.71,17.73,44.29,11.61,12.24-7,16.18-28.52,11-54.56-.42-2-.83-4-1.35-6.12,1.45-.41,2.9-.83,4.25-1.34,26.14-8.61,43.15-22.62,43.15-37C242.26,113.62,226.39,100.34,201.71,91.84Zm-5.61,63.27h0c-1.24.41-2.48.83-3.83,1.24a226.37,226.37,0,0,0-11.52-28.83,224.37,224.37,0,0,0,11.1-28.42c2.28.72,4.57,1.35,6.74,2.17,21.06,7.27,34,18,34,26.25C232.51,136.13,218.61,147.54,196.1,155.11Z"/><path class="cls-3" d="M141.23,62.27V192.86a29.25,29.25,0,0,0,16.19-26V88.31A29.16,29.16,0,0,0,141.23,62.27Z"/><path class="cls-3" d="M115.3,62.27a29.29,29.29,0,0,0-16.18,26v78.42a29.15,29.15,0,0,0,16.18,26Z"/><path class="cls-4" d="M132.31,189.23a1.82,1.82,0,0,1-1.76-1.76c0-1.66-.62-2-3.53-2.59-3.11-.63-7.78-1.66-7.78-8.72,0-6.74,4.67-7.88,8.1-8.71s4.87-1.35,4.87-4.36c0-3.42-2-4.25-5.39-5.29-2.8-.93-6.75-2.07-6.75-6.74s4-6,6.75-6.95c3.32-1,5.18-1.86,5.18-5,0-2.8-1.35-3.21-4.46-3.94s-7.47-1.76-7.47-8,4.67-7.78,7.78-8.61,4.15-1.35,4.15-3.32-.62-2.18-3.42-2.8-7.05-1.56-7.05-7.68,4.66-7.78,8-9c3.12-1.14,4.05-1.66,4.05-3.11,0-1.25-.83-1.66-3.74-2.6-3.42-1-8.5-2.59-8.5-9.75,0-9.33,8.3-13.59,12.65-14.62a1.75,1.75,0,1,1,.73,3.42c-.42.1-10,2.39-10,11.2,0,4.36,2.28,5.19,6,6.33,2.8.83,6.22,1.87,6.22,5.91S133.45,98,130.55,99c-3.53,1.25-5.7,2.28-5.7,5.71,0,3.11,1.34,3.63,4.25,4.25,2.49.52,6.22,1.45,6.22,6.22s-3.84,5.81-6.64,6.64c-3.42,1-5.29,1.77-5.29,5.29,0,3.22,1.56,3.74,4.77,4.57,2.91.72,7.16,1.66,7.16,7.36,0,5.91-4.35,7.37-7.57,8.4s-4.36,1.56-4.36,3.53,1.14,2.38,4.26,3.42c3.32,1,7.88,2.49,7.88,8.71,0,5.92-4.36,6.95-7.57,7.78-3.53.83-5.4,1.56-5.4,5.29,0,4.26,2,4.67,5,5.29,2.49.52,6.33,1.35,6.33,6A1.48,1.48,0,0,1,132.31,189.23Z"/><g class="cls-5"><path class="cls-4" d="M287.18,93.6h-6.33v17.11H269.23V62.27h19.09c5.7,0,10.27,1.25,13.48,3.84a13,13,0,0,1,4.88,10.79,16.24,16.24,0,0,1-2.08,8.4,14.57,14.57,0,0,1-6.43,5.39l10.06,19.51v.51H295.78Zm-6.33-9h7.36a6.77,6.77,0,0,0,5-1.77,6.62,6.62,0,0,0,1.66-4.87,6.63,6.63,0,0,0-1.66-4.88,6.77,6.77,0,0,0-5-1.76h-7.36Z"/><path class="cls-4" d="M343.6,90.18H325.24v11.51h21.68v8.92H313.63V62.27H347v9H325.24V81.46H343.6Z"/><path class="cls-4" d="M379.18,101.59H363.1l-2.8,9H347.85l17.74-48.34h11l17.84,48.34H381.88ZM365.9,92.67h10.38l-5.19-16.81Z"/><path class="cls-4" d="M436.44,94.33a17.45,17.45,0,0,1-2.7,8.92,16.44,16.44,0,0,1-6.95,6,23.34,23.34,0,0,1-10.27,2.08c-6.33,0-11.41-2.08-15-6.23s-5.5-10-5.5-17.53V85.2a29,29,0,0,1,2.49-12.45,18.41,18.41,0,0,1,7.16-8.19,19.55,19.55,0,0,1,10.79-2.91c5.91,0,10.58,1.56,14.1,4.67a18.69,18.69,0,0,1,6.12,12.76H425c-.11-2.91-.83-5.08-2.18-6.33s-3.53-2-6.43-2A7.1,7.1,0,0,0,410,74c-1.46,2.17-2.08,5.6-2.08,10.37v3.42c0,5.19.62,8.82,2,11.1s3.53,3.32,6.74,3.32c2.7,0,4.78-.62,6.12-1.87s2.18-3.21,2.29-6Z"/><path class="cls-4" d="M479,71.3H464.44v39.41H452.82V71.3H438.61v-9h40.46v9Z"/></g><g class="cls-5"><path class="cls-4" d="M299.41,173l-18.67-27v27H270V127.62h10.78l18.67,27v-27H310.2V173Z"/><path class="cls-4" d="M319,127.62h28.21v8.82H330.12v9.13H346.4v8.81H330.12V164h17.32v8.82H319V127.62Z"/><path class="cls-4" d="M399.3,159.05l7.06-31.43h11.41L405.21,173H393.8l-9.23-34-9.23,34H363.93l-12.55-45.33h11.41l7,31.43,8.41-31.43h12.34Z"/><path class="cls-4" d="M458.32,156.46V173h-11.2V156.46l-14.94-28.84h11.93l8.61,19.09,8.61-19.09h11.93Z"/><path class="cls-4" d="M520.14,150.23a26.94,26.94,0,0,1-1.55,9.13,23.1,23.1,0,0,1-4.57,7.47,20.23,20.23,0,0,1-7.26,5.08,24.29,24.29,0,0,1-9.75,1.87,24.79,24.79,0,0,1-9.85-1.87,20.23,20.23,0,0,1-7.26-5.08,22.64,22.64,0,0,1-4.46-7.47,26.29,26.29,0,0,1-1.56-9.13,26.69,26.69,0,0,1,1.56-9.12,22.54,22.54,0,0,1,4.46-7.47,20.38,20.38,0,0,1,7.26-5.09,24.62,24.62,0,0,1,9.85-1.86,24.12,24.12,0,0,1,9.75,1.86,20.38,20.38,0,0,1,7.26,5.09,23,23,0,0,1,4.57,7.47A26.92,26.92,0,0,1,520.14,150.23ZM497,164.86a11.86,11.86,0,0,0,5.19-1,10.61,10.61,0,0,0,3.73-3,12.24,12.24,0,0,0,2.28-4.66,21,21,0,0,0,.73-5.92,21.42,21.42,0,0,0-.73-5.91,14,14,0,0,0-2.28-4.67,10.35,10.35,0,0,0-3.73-3,11.54,11.54,0,0,0-5.19-1,13.11,13.11,0,0,0-5.19,1,11.66,11.66,0,0,0-3.73,3,12.29,12.29,0,0,0-2.28,4.67,20.89,20.89,0,0,0-.73,5.91,21.49,21.49,0,0,0,.73,5.92,14,14,0,0,0,2.28,4.66,11.69,11.69,0,0,0,3.73,3A11.29,11.29,0,0,0,497,164.86Z"/><path class="cls-4" d="M561,141.94a12.73,12.73,0,0,1-2.59,8,15.75,15.75,0,0,1-7.16,5.19L566.2,173H552.4L540,157.18h-2.07V173h-11.2V127.62h14.41a30.84,30.84,0,0,1,7.78.93,19.19,19.19,0,0,1,6.23,2.7,13.21,13.21,0,0,1,4.15,4.46A10.08,10.08,0,0,1,561,141.94Zm-10.79.2a5.11,5.11,0,0,0-2.38-4.56,13.19,13.19,0,0,0-6.64-1.45H538v12.75h2.7a12.65,12.65,0,0,0,7.05-1.76A5.66,5.66,0,0,0,550.22,142.14Z"/><path class="cls-4" d="M570.34,173V127.62h11.21V149.3l14.31-21.68h12.55L593.06,150,609.45,173H596.07l-14.52-22.2V173Z"/></g></g></svg>