<svg xmlns="http://www.w3.org/2000/svg" viewBox="0 0 623.62 255.12"><defs><style>.cls-1{fill:#fff;}.cls-2{fill:#5fa1ee;}</style></defs><g id="BG"><rect class="cls-1" width="623.62" height="255.12"/></g><g id="Logo"><path class="cls-2" d="M198.58,119V193.2a47.73,47.73,0,0,0,47.74,47.74h131A47.73,47.73,0,0,0,425,193.2V151.34c-.34.52-.69,1-1,1.55a153.16,153.16,0,0,1-14.1,18.17c-4.53,4.89-10.18,10-16.76,13A45.92,45.92,0,0,1,374,188.61a37.58,37.58,0,0,1-6.23-.51,38.92,38.92,0,0,1-20.93-11c-9.7-9.52-15.35-23.45-19.12-34.15-1.68-4.76-3.22-9.64-4.61-14-.27-.86-.54-1.7-.8-2.51-.13-.43-.27-.85-.4-1.26-2,4.48-4.07,9.44-6.3,14.86q-1.86,4.5-3.92,9.43c-4.74,11.24-10.51,24.12-17.62,34-6,8.39-16.81,19.78-32.64,19.78a35.36,35.36,0,0,1-4.52-.3c-10.11-1.35-17.7-7.68-22.72-13.09-5.37-5.79-10.19-13.14-14.51-21-7.59-13.79-14.75-31.26-21.06-49.85M377.3,14.18h-131a47.58,47.58,0,0,0-33,13.28A557.67,557.67,0,0,0,231.2,99.62c6.57,20.45,13.84,38.53,20.92,51.39,3.56,6.48,6.7,10.94,9.21,13.64l.19.21a32.07,32.07,0,0,0,2.41-3c4.39-6.1,8.75-15.37,13.57-26.79,1.07-2.54,2.17-5.21,3.29-7.94,3.54-8.58,7.32-17.74,11.1-25.16a78.75,78.75,0,0,1,9.27-14.68c3.46-4.14,9.37-9.83,18.12-11.51a25.5,25.5,0,0,1,4.81-.47c8.8,0,15.43,4.8,19.36,9.24,4.14,4.69,6.86,10.52,8.72,15.1,2,4.9,3.79,10.41,5.42,15.55.29.91.58,1.81.86,2.71,1.39,4.38,2.72,8.59,4.19,12.74,3.76,10.67,7.13,17.09,10.12,20a4.38,4.38,0,0,0,1.13.9H374a9.82,9.82,0,0,0,3.66-1.1,12,12,0,0,0,1.34-1,38.15,38.15,0,0,0,3.77-3.61,119.3,119.3,0,0,0,10.59-13.75c7.88-11.66,16.43-27,24.58-43.63,2.46-5,4.85-10.1,7.15-15.18V61.92A47.73,47.73,0,0,0,377.3,14.18"/></g></svg>