<svg xmlns="http://www.w3.org/2000/svg" viewBox="0 0 623.62 255.12"><defs><style>.cls-1{fill:#fff;}.cls-2{fill:#231f20;}</style></defs><title>avanscoperta</title><g id="BG"><rect class="cls-1" width="623.62" height="255.12"/></g><g id="Logo"><path class="cls-2" d="M78.77,151.39h-9c-1.58,0-.84-2-1.79-2-1.16,0-3.59,2-7.39,2h-4c-8.76,0-14.88-6-14.88-14.14v-.53c0-8.34,6.12-14.14,14.88-14.14H66.74c.63,0,1.06-.32,1.06-1v-.21l-.11-1.26c-.42-4.33-3.27-7.07-7.6-7.07a7.94,7.94,0,0,0-5.8,3.17c-1.48,1.9-1.9,3.48-2.74,3.48a1.47,1.47,0,0,1-.63-.21L42.26,115a1,1,0,0,1-.64-.74c0-.84,1.48-4.22,5.07-7.7,3.16-3.06,7.7-4.54,13.4-4.54,11.93,0,19.74,7.39,19.74,18.58v29.76C79.83,151.07,79.51,151.39,78.77,151.39ZM56.61,132.71a2.93,2.93,0,0,0-2.85,3v1.58a2.83,2.83,0,0,0,2.85,3.06h4c3.27,0,5.7-2,7.07-5.91,0,0,0-.53.11-1.69Z"/><path class="cls-2" d="M111.17,150.76a1,1,0,0,1-.95.63h-7.6a2.49,2.49,0,0,1-.95-.63L83,104.53a1.49,1.49,0,0,1-.21-.63c0-.53.42-.84,1.16-.84H94.6a2.44,2.44,0,0,1,.95.63c5,13,8.76,22.69,11.09,29,7.28-19.42,9.5-29.66,11.61-29.66H129c.74,0,1.16.32,1.16.84a1.5,1.5,0,0,1-.21.63Z"/><path class="cls-2" d="M170.49,151.39h-9c-1.58,0-.84-2-1.79-2-1.16,0-3.59,2-7.39,2h-4c-8.76,0-14.88-6-14.88-14.14v-.53c0-8.34,6.12-14.14,14.88-14.14h10.13c.63,0,1.06-.32,1.06-1v-.21l-.11-1.26c-.42-4.33-3.27-7.07-7.6-7.07a7.94,7.94,0,0,0-5.8,3.17c-1.48,1.9-1.9,3.48-2.74,3.48a1.46,1.46,0,0,1-.63-.21L134,115a1,1,0,0,1-.63-.74c0-.84,1.48-4.22,5.07-7.7,3.16-3.06,7.7-4.54,13.4-4.54,11.93,0,19.74,7.39,19.74,18.58v29.76C171.54,151.07,171.23,151.39,170.49,151.39Zm-22.16-18.68a2.93,2.93,0,0,0-2.85,3v1.58a2.83,2.83,0,0,0,2.85,3.06h4c3.27,0,5.7-2,7.07-5.91,0,0,0-.53.11-1.69Z"/><path class="cls-2" d="M221.89,151.39h-10c-.74,0-1.06-.31-1.06-1.06V121.63a7.55,7.55,0,0,0-15.09,0v28.71c0,.74-.32,1.06-1.05,1.06h-9.92c-.74,0-1.06-.31-1.06-1.06V104.11c0-.74.32-1.06,1.06-1.06h9c1.58,0,.95,2.11,1.79,2.11,1.26,0,3.8-2.11,8.65-2.11,10.77,0,18.79,7.6,18.79,18.57v28.71C222.95,151.07,222.63,151.39,221.89,151.39Z"/><path class="cls-2" d="M266.75,105.59c3.9,2.85,6.23,7.39,6.23,8.65a1,1,0,0,1-.63.84l-8.65,4.22a1.14,1.14,0,0,1-.53.11c-.42,0-.53-.21-.84-.63-2.21-3.27-3.38-6-7.71-6h-3.06c-3.8,0-5.8,1.37-5.8,4,0,4.33,5.8,3.38,14.46,5.7s12.56,6.23,12.56,13.19c0,9.92-7.07,16.78-18.15,16.78h-3.06c-5.91,0-10.45-1.69-13.72-5.17s-4.54-6.33-4.54-7.28c0-.31.21-.53.63-.74l8.65-4.22a1,1,0,0,1,.53-.11c.31,0,.53.32.84.74,2.11,3.48,3.48,6,7.6,6h3.06c3.8,0,6.12-1.9,6.12-4.54,0-4.22-5.91-3.27-14.56-5.49-8.45-2.11-12.35-6.12-12.35-13.3,0-9.6,7.28-16.36,17.73-16.36h3.06C259.57,102,263.47,103.16,266.75,105.59Z"/><path class="cls-2" d="M320.47,139.78c0,1.16-1.58,4-5.17,7.81-3.06,3.17-7.6,4.86-13.51,4.86-11.93,0-19.74-7.49-19.74-18.68V120.68c0-11.19,7.81-18.68,19.74-18.68,4.86,0,8.76,1.05,12,3.48,4.11,3.06,6.65,7.7,6.65,9a1,1,0,0,1-.63.85l-9.18,4.54a1.14,1.14,0,0,1-.53.1c-.63,0-.84-.63-1.48-1.79-1.79-3.38-3.8-5.07-6.86-5.07a7.44,7.44,0,0,0-7.6,7.6v13.09a7.44,7.44,0,0,0,7.6,7.6c3.06,0,5-1.69,6.76-5.07.63-1.27,1.06-2,1.58-2a.94.94,0,0,1,.53.11l9.18,4.54A1,1,0,0,1,320.47,139.78Z"/><path class="cls-2" d="M348.12,152.45c-11.93,0-19.73-7.49-19.73-18.68V120.68c0-11.19,7.8-18.68,19.73-18.68s19.63,7.49,19.63,18.68v13.09C367.75,145,359.94,152.45,348.12,152.45Zm7.49-31.77a7.55,7.55,0,1,0-15.09,0v13.09a7.55,7.55,0,1,0,15.09,0Z"/><path class="cls-2" d="M399,151.39c-3.8,0-6.44-2.11-7.81-2.11-.42,0-.74.42-.74,1.16v23.64c0,.74-.32,1.06-1.05,1.06h-9.92c-.74,0-1.06-.32-1.06-1.06v-70c0-.74.32-1.06,1.06-1.06h9c1.47,0,.84,2.11,1.79,2.11,1.16,0,3.91-2.11,8.65-2.11,10.77,0,18.79,7.49,18.79,18.57v11.08C417.67,143.48,409.86,151.39,399,151.39Zm6.54-29.76a7.55,7.55,0,0,0-15.1,0v11.08a7.51,7.51,0,0,0,7.6,7.6,7.35,7.35,0,0,0,7.49-7.6Z"/><path class="cls-2" d="M465.06,130.28H439.94c-.74,0-1.06.32-1.06,1.06v2.43a7.44,7.44,0,0,0,7.6,7.6c3.06,0,5-1.69,6.76-5.07.63-1.27,1.06-2,1.58-2a1,1,0,0,1,.53.11l9.18,4.54a1,1,0,0,1,.64.84c0,1.16-1.58,4-5.17,7.81-3.06,3.17-7.6,4.86-13.51,4.86-11.93,0-19.73-7.49-19.73-18.68V120.68a18.05,18.05,0,0,1,3-9.71,20.08,20.08,0,0,1,33.46,0,18.06,18.06,0,0,1,3,9.71v8.55C466.11,130,465.8,130.28,465.06,130.28ZM453.77,119.1c0-2.85-3.48-6-7.28-6-4,0-7.39,3.17-7.39,6.12,0,.63.31,1,1.05,1h12.56C453.45,120.15,453.77,119.84,453.77,119.1Z"/><path class="cls-2" d="M502.63,116.35c-1.37,0-3.59-2.11-6.55-2.11a7.25,7.25,0,0,0-7.28,7.39v28.71c0,.74-.31,1.06-1.05,1.06h-9.92c-.74,0-1.06-.31-1.06-1.06V104.11c0-.74.32-1.06,1.06-1.06h9c.74,0,1.05.21,1.05.95v1.48a1,1,0,0,0,.95,1.06l.63-.32c2.74-2.11,5.28-3.17,8-3.17,3.7,0,5.91.84,5.91,1.9v10.24C503.37,115.93,503.06,116.35,502.63,116.35Z"/><path class="cls-2" d="M534,152.45a21.8,21.8,0,0,1-13.83-5.7c-3.38-3.27-5.07-7.7-5.07-13V115.19c0-.74-.32-1.06-1.06-1.06h-5.49c-.74,0-1.05-.31-1.05-1.05l.21-5.59,12.46-13.19.74-.32h5.17c.74,0,1.06.32,1.06,1.06v7c0,.74.32,1.05,1.05,1.05h7c.74,0,1.05.32,1.05,1.06v9c0,.74-.31,1.05-1.05,1.05h-7c-.74,0-1.05.32-1.05,1.06v18.58c0,3.27,2.32,6.23,4.85,6.75,3,.64,4.22.53,4.22,1.8v9.07C536.19,152.34,535.57,152.45,534,152.45Z"/><path class="cls-2" d="M580.94,151.39h-9c-1.58,0-.84-2-1.79-2-1.16,0-3.59,2-7.39,2h-4c-8.76,0-14.88-6-14.88-14.14v-.53c0-8.34,6.12-14.14,14.88-14.14h10.13c.64,0,1.06-.32,1.06-1v-.21l-.11-1.26c-.42-4.33-3.27-7.07-7.6-7.07a7.94,7.94,0,0,0-5.81,3.17c-1.48,1.9-1.9,3.48-2.74,3.48a1.46,1.46,0,0,1-.63-.21L544.43,115a1,1,0,0,1-.64-.74c0-.84,1.48-4.22,5.07-7.7,3.16-3.06,7.7-4.54,13.4-4.54,11.93,0,19.74,7.39,19.74,18.58v29.76C582,151.07,581.69,151.39,580.94,151.39Zm-22.16-18.68a2.93,2.93,0,0,0-2.85,3v1.58a2.83,2.83,0,0,0,2.85,3.06h4c3.27,0,5.7-2,7.07-5.91,0,0,0-.53.11-1.69Z"/></g></svg>