<svg xmlns="http://www.w3.org/2000/svg" viewBox="0 0 623.62 255.12"><defs><style>.cls-1{fill:#fff;}.cls-2{fill:#f07f3c;}.cls-3{fill:#033243;}</style></defs><title>credimi</title><g id="BG"><rect class="cls-1" width="623.62" height="255.12"/></g><g id="Logo"><path class="cls-2" d="M136.61,88.23H117.92a25.16,25.16,0,0,0-23.44,16.24L80,143.12a3.58,3.58,0,0,1-3.35,2.32H58a17.88,17.88,0,0,1,0-35.76h14.3a10.73,10.73,0,1,0,0-21.45H58a39.33,39.33,0,0,0,0,78.66H76.64a25.15,25.15,0,0,0,23.44-16.24L114.57,112a3.59,3.59,0,0,1,3.35-2.32h18.69a17.88,17.88,0,0,1,0,35.76h-14.3a10.73,10.73,0,1,0,0,21.45h14.3a39.33,39.33,0,0,0,0-78.66Z"/><path class="cls-3" d="M335.05,116.83a23.27,23.27,0,0,0-23.24-23.24h-25A5.36,5.36,0,0,0,281.42,99v57.2a5.36,5.36,0,1,0,10.72,0V104.32h19.67a12.52,12.52,0,0,1,0,25,5.36,5.36,0,0,0-4.12,8.8l17.88,21.45a5.36,5.36,0,0,0,8.24-6.87L321.5,138A23.28,23.28,0,0,0,335.05,116.83Z"/><path class="cls-3" d="M249.24,104.32h14.3a5.37,5.37,0,0,0,0-10.73h-14.3a34,34,0,0,0,0,67.94h14.3a5.37,5.37,0,0,0,0-10.73h-14.3a23.24,23.24,0,0,1,0-46.48Z"/><path class="cls-3" d="M431.59,93.59h-14.3a5.37,5.37,0,1,0,0,10.73h14.3a23.24,23.24,0,0,1,0,46.48h-14.3a5.37,5.37,0,1,0,0,10.73h14.3a34,34,0,0,0,0-67.94Z"/><path class="cls-3" d="M394.05,104.32a5.37,5.37,0,0,0,0-10.73H354.71A5.36,5.36,0,0,0,349.35,99v57.2a5.36,5.36,0,0,0,5.36,5.37h39.34a5.37,5.37,0,0,0,0-10.73h-34V132.92h26.81a5.36,5.36,0,1,0,0-10.72H360.08V104.32Z"/><path class="cls-3" d="M485.22,93.59A5.36,5.36,0,0,0,479.86,99v57.2a5.36,5.36,0,1,0,10.72,0V99A5.36,5.36,0,0,0,485.22,93.59Z"/><path class="cls-3" d="M599.64,93.59A5.36,5.36,0,0,0,594.27,99v57.2a5.37,5.37,0,1,0,10.73,0V99A5.36,5.36,0,0,0,599.64,93.59Z"/><path class="cls-3" d="M572.81,93.9a5.36,5.36,0,0,0-6,1.71l-24.41,30.52L518,95.61A5.36,5.36,0,0,0,508.46,99v57.2a5.37,5.37,0,1,0,10.73,0V114.25l19,23.81a5.37,5.37,0,0,0,8.38,0l19-23.81v41.91a5.37,5.37,0,1,0,10.73,0V99A5.36,5.36,0,0,0,572.81,93.9Z"/></g></svg>