<?xml version="1.0" encoding="utf-8"?>
<!-- Generator: Adobe Illustrator 16.0.3, SVG Export Plug-In . SVG Version: 6.00 Build 0)  -->
<!DOCTYPE svg PUBLIC "-//W3C//DTD SVG 1.1//EN" "http://www.w3.org/Graphics/SVG/1.1/DTD/svg11.dtd">
<svg version="1.1" xmlns="http://www.w3.org/2000/svg" xmlns:xlink="http://www.w3.org/1999/xlink" x="0px" y="0px" width="623.6px"
	 height="255.1px" viewBox="0 0 623.6 255.1" style="enable-background:new 0 0 623.6 255.1;" xml:space="preserve">
<style type="text/css">
<![CDATA[
	.st0{fill:#FF601B;}
	.st1{fill:#FFFFFF;}
	.st2{fill:#005780;}
	.st3{fill:#007AB3;}
]]>
</style>
<g id="BG">
	<rect class="st1" width="623.6" height="255.1"/>
</g>
<g id="Logo">
	<g id="Livello_x0020_1">
		<g id="_134318104">
			<path id="_134318464" class="st3" d="M13.9,216.8c0.9-8.8,1.7-16.5,2.3-23.2c0.6-6.9,1.1-13.2,1.5-18.7c0.5-8.2,1-17.7,1.5-28.6
				c0.5-10.6,1-22.6,1.4-35.8v0c0.5-13.8,0.9-25.2,1.1-34.3c0.2-9.2,0.4-16.2,0.4-20.8h0V41.1v-4l4,0c12.9,0.1,25.4,0.2,37.4,0.2
				c12,0,23.6,0.1,34.8,0.1v0c23.8,0,45.3-0.1,64.7-0.2l4.3,0l-0.3,4.3c-0.7,10-1.2,18.2-1.5,24.5c-0.3,6.3-0.5,11-0.5,14.1v4.1
				l-4.1-0.1l-11.2-0.4l-8.9-0.1l-9-0.1v0h-25.4c-3.4,0-10.7,0.1-21.8,0.2l-0.9,22.2l14.6,0.3v0H119c3.8,0,7.6,0,11.4-0.1
				c4.5-0.1,9.9-0.2,16.1-0.3l4.3-0.1l-0.2,4.3c-0.5,8.2-0.8,15.4-1.1,21.7c-0.2,6.1-0.3,11.5-0.3,16.3v4.1l-4.1-0.1
				c-7-0.2-13-0.4-18.1-0.5c-4.6-0.1-8.8-0.1-12.7-0.1c-6.3,0-12.2,0.1-17.7,0.1c-5,0.1-10.1,0.2-15.5,0.4l-1.2,42.6l-0.1,17.2h0
				v5.7v4l-4,0l-27.7-0.3v0c-3.3,0-13.4,0.1-30.2,0.2l-4.5,0L13.9,216.8L13.9,216.8z M172.6,216.8c0.2-2.2,0.3-4.5,0.5-6.9
				c0.1-2.8,0.3-5.7,0.4-8.9c0.1-3.4,0.2-6.8,0.4-10.1c0.1-3.5,0.3-7,0.5-10.4l0.1-1.8l1.4-1.1c4.6-3.8,8.9-7.4,12.8-10.7
				c4-3.4,7.9-6.9,11.7-10.4c6.1-5.6,11.8-11,17.1-16.2c5.3-5.2,10.3-10.2,15-15.1c3.7-3.9,7.2-7.6,10.2-11.1
				c3.1-3.5,5.9-6.9,8.4-10.1l0,0c1.3-1.7,2.4-3.3,3.3-4.9c0.9-1.4,1.5-2.7,1.9-3.7l0,0c0.3-0.7,0.5-1.4,0.6-2.1v0
				c0.1-0.6,0.2-1.3,0.2-2.1c0-0.9-0.1-1.8-0.3-2.5c-0.2-0.7-0.5-1.4-0.8-2c-0.3-0.6-0.8-1.1-1.4-1.6l0,0c-0.7-0.6-1.5-1.1-2.4-1.6
				l0,0c-1-0.5-2.1-1-3.4-1.5c-1.3-0.5-2.7-0.9-4.3-1.2c-1.6-0.3-3.3-0.6-5.1-0.8c-1.7-0.2-3.7-0.3-5.8-0.3c-2.9,0-5.9,0.1-8.9,0.4
				h0c-3.1,0.2-6.2,0.6-9.5,1.1l0,0c-3.1,0.5-7,1.2-11.6,2.2c-4.5,1-9.7,2.2-15.3,3.6l-6,1.5l1.1-6.1l3.3-18.4l0-0.1
				c0.4-1.9,0.9-4.5,1.4-7.9c0.5-3.3,1.2-7.7,1.9-13.1l0.4-2.9l2.9-0.5c11.3-1.9,22.4-3.3,33.2-4.3c10.7-1,21.1-1.4,31.1-1.4v0
				c4.5,0,9.1,0.2,13.6,0.7c4.5,0.4,8.9,1.1,13.1,1.9c4.3,0.8,8.4,2,12.3,3.5h0c3.9,1.5,7.6,3.2,11.1,5.3l0,0
				c3.5,2.1,6.6,4.3,9.2,6.8c2.7,2.5,5,5.2,6.8,8.1v0c1.8,2.9,3.2,6,4.1,9.1c0.9,3.2,1.4,6.5,1.4,9.8c0,2.1-0.1,4.3-0.4,6.4
				c-0.3,2.1-0.6,4.2-1.1,6.3l0,0.1c-0.5,2.1-1.3,4.3-2.2,6.5c-0.9,2.2-2,4.6-3.4,7.3l0,0.1c-1.7,3.3-3.6,6.4-5.7,9.5
				c-2.1,3.1-4.4,6.3-6.9,9.4l0,0c-3.6,4.6-7.5,9.3-11.7,14c-4.2,4.7-8.6,9.5-13.3,14.3l0,0c-4.5,4.6-9.5,9.5-14.9,14.6
				c-3.1,3-6.5,6.1-10,9.4l4,0v0c4,0,10.6-0.1,19.9-0.2c9.8-0.2,16.7-0.4,20.6-0.5c1.8-0.1,4-0.2,6.7-0.4c2.3-0.2,4.8-0.4,7.4-0.7
				l4.7-0.5l-0.3,4.7c-0.1,2.3-0.3,4.9-0.5,7.4c-0.2,2-0.4,4.6-0.7,8.1h0c-0.3,3.3-0.6,6.7-0.8,10.3c-0.3,4-0.6,8.2-0.9,12.3
				l-0.3,3.8l-3.8,0c-10.7-0.1-21.7-0.2-32.8-0.2c-8.3,0-19.6,0-34.4,0c-29.4,0-53.3,0.1-71.5,0.2l-4.4,0L172.6,216.8L172.6,216.8z"
				/>
			<path id="_134317960" class="st0" d="M335.3,221.3c0.3-5.1,0.6-11.9,0.8-20.5l11.6,0.2c1.2,0,4.5-0.1,9.8-0.2
				c-0.3,4.1-0.6,10.9-1,20.5l-9.8-0.1C346,221.2,342.2,221.2,335.3,221.3z"/>
			<path id="_134317888" class="st2" d="M369.6,221.3l1.1-11.9l2.2-40.2l0.6-16.2v-8.8c5.8,0.1,11,0.1,15.5,0.1
				c3.2,0,7.7,0,13.5-0.1l24.2,43.8l3.3,6.4c0.4-6.3,0.8-15.2,1.3-26.6c0.4-11.4,0.6-19.3,0.6-23.7c4.6,0.1,8.3,0.1,11.1,0.1
				c1.3,0,5,0,11.1-0.1l-1.3,16.8l-2.5,46.8l-0.3,13.5c-4.9-0.1-9.5-0.1-13.7-0.1c-3.5,0-8.4,0-14.7,0.1c-2-3.7-3.4-6.4-4.4-8
				l-9.5-16.1c-3.1-5.3-6-10.3-8.6-15.1c-1.7-3.1-3.5-6.4-5.4-10.1l-1.2,26.8l-0.6,22.5c-4.7-0.1-8.2-0.1-10.7-0.1
				C379.2,221.2,375.3,221.2,369.6,221.3L369.6,221.3z M464.5,221.3c0.9-9.7,1.6-17.9,2.1-24.4c0.4-6.5,0.9-15.2,1.3-26.1
				c0.4-10.9,0.7-18.1,0.7-21.6l-0.1-5c8.9,0.1,19.6,0.1,32.3,0.1c11.6,0,21.9,0,30.8-0.1l-0.1,1.9c0,0.4-0.1,2.1-0.3,4.9l-0.3,6.2
				c-0.1,1.3-0.1,2.6-0.1,4c-7.3-0.3-13.4-0.5-18.3-0.5c-5.4,0-9.1,0-11,0c-1.9,0-4.9,0.1-8.9,0.2l-0.7,12.9
				c4.5,0.1,9.6,0.2,15.5,0.2c2.1,0,7.7-0.1,16.8-0.4c-0.4,4.8-0.7,10.6-1.1,17.2c-6.5-0.1-11.5-0.1-15-0.1c-5.2,0-11,0.1-17.4,0.4
				l-0.7,13.7h6.5c1.9,0,5.9-0.1,11.9-0.2l11.7-0.3c1.7,0,4.6-0.2,8.7-0.4c-0.4,5.6-0.8,11.3-1.1,17.3c-9.2-0.1-19.2-0.1-30.2-0.1
				l-24.9,0.1L464.5,221.3L464.5,221.3z M557.9,221.3c1.9-18.3,3-38.4,3.4-60.4l-24.1,0.6l0.3-6.3c0.2-3.4,0.3-7,0.3-11
				c10.7,0.1,23.2,0.1,37.4,0.1l14-0.1h13.6l7.3-0.1l-0.3,5.5c-0.2,3-0.2,5.4-0.3,7.3c-0.1,1.9-0.1,3.4-0.1,4.4
				c-8.1-0.4-14.7-0.6-19.9-0.6h-4c-0.6,6.7-1,12.8-1.3,18.4c-0.4,8.1-0.8,15.9-1,23.5c-0.2,7.6-0.3,13.8-0.3,18.5
				c-6.2-0.1-10.2-0.1-12-0.1C569.3,221.2,565,221.2,557.9,221.3L557.9,221.3z"/>
		</g>
	</g>
</g>
</svg>
