<svg xmlns="http://www.w3.org/2000/svg" viewBox="0 0 623.62 255.12"><defs><style>.cls-1{fill:#fff;}.cls-2{fill:#f60;}.cls-3{fill:#6d6e70;stroke:#6d6e70;stroke-width:0.1px;}</style></defs><title>facile</title><g id="BG"><rect class="cls-1" width="623.62" height="255.12"/></g><g id="Logo"><path class="cls-2" d="M211.45,111.85H201v-14h10.47c0-18.88,6.6-24.83,25.09-24.83,3.36,0,7,.26,10.48.39V88.83a45.27,45.27,0,0,0-5.82-.39c-4.92,0-8,.65-8,6.59v2.85h12.93v14H233.18v52h-21.6l-.13-52Z"/><path class="cls-2" d="M242.62,118.31c.39-8.66,4.4-14.22,10.35-17.71s13.45-4.53,21-4.53c15.65,0,30.78,3.36,30.78,22.11V147c0,5.56,0,11.64,2.58,16.95H285.56a25.15,25.15,0,0,1-1.3-6.21c-5.56,5.82-13.83,8.15-21.72,8.15C250,165.91,240,159.57,240,146c0-21.47,23.41-19.79,38.41-22.89,3.62-.78,5.69-2.07,5.69-6.08,0-4.91-5.94-6.85-10.47-6.85-6,0-9.83,2.71-10.74,8.27l-20.3-.13Zm27.93,34.15c10.35,0,13.71-5.82,13.2-19.4-3.11,1.94-8.67,2.32-13.32,3.49s-8.93,3.23-8.93,8.4S265.77,152.46,270.55,152.46Z"/><path class="cls-2" d="M351.64,122.06c-.13-5.56-5-9.57-10.6-9.57-12,0-14,10.35-14,19.4,0,8.54,3.62,17.33,12.8,17.33,7.5,0,11.26-4.27,12.29-11.25h20.95c-1.94,17.72-15.65,27.81-33.11,27.81-19.78,0-34.53-13.58-34.53-33.76,0-21,13.32-36,34.53-36,16.43,0,31,8.66,32.46,26Z"/><path class="cls-2" d="M396.26,89.73h-21.6V73.18h21.6V89.73Zm-21.6,8.15h21.6v66h-21.6Z"/><path class="cls-2" d="M402.08,73.18h21.6v90.66h-21.6Z"/><path class="cls-2" d="M447.21,136.16c.39,9.05,5.57,15,14.75,15,5.17,0,10.34-2.46,12.28-7.24h20.18c-3.88,15.26-18,21.86-32.72,21.86-21.47,0-36.08-12.94-36.08-35.05,0-20.18,16.16-34.66,35.56-34.66,23.67,0,35.44,17.85,34.4,40.09Zm26.78-12c-.39-7.37-5.57-13.45-12.81-13.45-7.63,0-12.67,5.43-14,13.45Z"/><path class="cls-2" d="M497.26,140.17h23.67v23.67H497.26V140.17Z"/><path class="cls-2" d="M548.61,89.73H527V73.18h21.6ZM527,97.88h21.6v66H527v-66Z"/><path class="cls-2" d="M593.35,111.85H580v30c0,5.17,3.11,6.34,7.76,6.34,1.81,0,3.75-.26,5.56-.26v15.91c-3.88.13-7.89.64-11.77.64-18.36,0-23.14-5.3-23.14-23.28V111.85H547.57v-14h10.87V78H580V97.88h13.32v14Z"/><path class="cls-2" d="M182.61,140.82v-31.3a58.94,58.94,0,0,0-59-59h-35a58.94,58.94,0,0,0-59,59v35.05a58.94,58.94,0,0,0,59,59h115S182.61,197.33,182.61,140.82ZM84.2,177.16a28.28,28.28,0,0,1-23.41-12.29,28,28,0,0,1-5-16.29V105.25A28.29,28.29,0,0,1,68,81.84a27.92,27.92,0,0,1,16.17-5h43.45a28.09,28.09,0,0,1,23.41,12.29,27.57,27.57,0,0,1,5,16.16v38.93A258.54,258.54,0,0,0,158,177.29Z"/><path class="cls-2" d="M140.58,135.64a80.21,80.21,0,0,1-68,0c2.07-4.52,4.26-8.92,6.33-13.45a64.51,64.51,0,0,0,55.23,0C136.31,126.72,138.38,131.25,140.58,135.64Z"/><path class="cls-3" d="M211.06,180H223c4.27,0,7.89,1.94,7.89,6.34a5.91,5.91,0,0,1-5,6.21v.13c3.36.38,4.4,2.58,4.52,5.43.13,1.68.13,5,1.17,6.21h-2.72c-.64-.91-.64-2.72-.64-3.76-.26-3.36-.52-7.11-5.18-7h-9.31v10.74h-2.59V180Zm2.46,11.51h9.18c3,0,5.57-1.81,5.57-4.65s-1.94-4.79-5.57-4.79h-9.18Z"/><path class="cls-3" d="M235.51,180H238v24.19h-2.45Z"/><path class="cls-3" d="M244.56,196.17c-.13,5,3.75,6.46,8.54,6.46,2.71,0,6.85-1.42,6.85-4.91,0-2.72-3-3.88-5.3-4.4L248.83,192c-3.11-.78-5.82-2.07-5.82-5.82,0-2.33,1.68-6.85,8.92-6.85,5.17,0,9.57,2.58,9.57,7.5h-2.58c-.13-3.75-3.37-5.56-7.12-5.56-3.36,0-6.46,1.16-6.46,4.78,0,2.33,1.81,3.23,3.88,3.75l6.33,1.42c3.62.91,6.73,2.46,6.73,6.34,0,1.68-.78,7-10,7-6.08,0-10.6-2.58-10.35-8.53l2.59.13Z"/><path class="cls-3" d="M266.29,180H277.8c4.65,0,7.76,2.59,7.76,7s-3.11,7-7.76,7h-9.06v10.35h-2.45V180Zm2.45,11.77h8.54c3.36,0,5.82-1.68,5.82-4.91s-2.33-4.92-5.82-4.92h-8.54v9.83Z"/><path class="cls-3" d="M294.09,180h2.72L307,204.19h-2.71l-3.1-7.51H289.44l-3.11,7.51h-2.71Zm-4,14.62H300.3l-5-12.42Z"/><path class="cls-3" d="M309.35,180h11.9c4.27,0,7.89,1.94,7.89,6.34a5.91,5.91,0,0,1-5,6.21v.13c3.36.38,4.39,2.58,4.52,5.43.13,1.68.13,5,1.17,6.21h-2.72c-.65-.91-.65-2.72-.65-3.76-.25-3.36-.51-7.11-5.17-7h-9.44v10.74h-2.46V180Zm2.46,11.51H321c3,0,5.56-1.81,5.56-4.65s-1.94-4.79-5.56-4.79h-9.18Z"/><path class="cls-3" d="M333.54,180h3.62l8.92,21.21L355,180h3.63v24.19h-2.46v-21H356l-8.92,21h-2.33l-8.93-21h-.12v21h-2.46l.26-24.19Z"/><path class="cls-3" d="M364.06,180h2.45v24.19h-2.45Z"/><path class="cls-3" d="M379.45,180h2.71l10.22,24.19h-2.72l-3.1-7.51H374.79l-3.1,7.51H369Zm-3.88,14.62h10.21l-5-12.42Z"/><path class="cls-3" d="M394.84,180h11.9c4.26,0,7.88,1.94,7.88,6.34a5.91,5.91,0,0,1-5,6.21v.13c3.36.38,4.4,2.58,4.53,5.43.13,1.68.13,5,1.16,6.21h-2.71c-.65-.91-.65-2.72-.65-3.76-.26-3.36-.52-7.11-5.17-7h-9.45v10.74h-2.45V180Zm2.45,11.51h9.19c3,0,5.56-1.81,5.56-4.65s-1.94-4.79-5.56-4.79h-9.19Z"/><path class="cls-3" d="M419,180h18v1.94H421.61v8.8h14.48v1.94H421.61v9.57h15.65v1.94H419.15L419,180Z"/><path class="cls-3" d="M450.71,180h18v1.94H453.29v8.8h14.49v1.94H453.29v9.57h15.65v1.94h-18.1L450.71,180Zm3.62-6.72h2.84l3.88,4.78h-1.81Z"/><path class="cls-3" d="M482.26,180h16.43v1.94h-14v8.8h12.41v1.94H484.72v11.51h-2.46V180Z"/><path class="cls-3" d="M507.48,180h2.72l10.21,24.19H517.7l-3.11-7.51H502.82l-3.1,7.51H497Zm-4,14.62h10.22l-5.05-12.42Z"/><path class="cls-3" d="M541.75,187.24c-.9-3.75-4.14-5.82-8-5.82-6.85,0-9.82,5.31-9.82,10.61s2.84,10.6,9.82,10.6a8.16,8.16,0,0,0,8.28-7.76h2.46c-.65,5.95-4.79,9.7-10.74,9.7-8.14,0-12.28-5.95-12.28-12.67s4-12.67,12.28-12.67c4.92,0,9.83,2.71,10.48,7.88l-2.46.13Z"/><path class="cls-3" d="M548.48,180h2.45v24.19h-2.45Z"/><path class="cls-3" d="M556.37,180h2.45v22.25h14.49v1.94H556.37V180Z"/><path class="cls-3" d="M575.89,180h18v1.94H578.35v8.8h14.49v1.94H578.35v9.57H594v1.94H575.89V180Z"/></g></svg>