<svg xmlns="http://www.w3.org/2000/svg" viewBox="0 0 623.62 255.12"><defs><style>.cls-1{fill:#fff;}.cls-2{fill:#7e7e7e;}.cls-3{fill:#eb5f21;}.cls-4{fill:#97c22c;}.cls-5{fill:#00a0e4;}.cls-6{fill:#fdc400;}</style></defs><title>microsoft</title><g id="BG"><rect class="cls-1" width="623.62" height="255.12"/></g><g id="Logo"><path class="cls-2" d="M261.28,85.43v76.23H248.06V101.88h-.22l-23.65,59.78h-8.82l-24.19-59.78h-.11v59.78H178.81V85.43h18.92L219.67,142H220l23.12-56.56Zm11.08,5.8a6.93,6.93,0,0,1,2.36-5.37,7.83,7.83,0,0,1,5.49-2.15A7.37,7.37,0,0,1,285.8,86a7.16,7.16,0,0,1,2.26,5.26,7,7,0,0,1-2.26,5.27,7.9,7.9,0,0,1-5.59,2.15,8.05,8.05,0,0,1-5.59-2.15,7.13,7.13,0,0,1-2.26-5.27m14.19,70.43h-12.9V107h12.9Zm39-9.35a18.54,18.54,0,0,0,6.35-1.29,24.63,24.63,0,0,0,6.34-3.55v11.94a26.89,26.89,0,0,1-7,2.68,35.62,35.62,0,0,1-8.6.86c-8.07,0-14.62-2.58-19.57-7.63s-7.53-11.61-7.53-19.46c0-8.82,2.58-16,7.74-21.72s12.37-8.5,21.83-8.5a29.28,29.28,0,0,1,7.31,1,24.87,24.87,0,0,1,5.92,2.15v12.37a21.54,21.54,0,0,0-6.13-3.34,18.44,18.44,0,0,0-6.34-1.18c-5.06,0-9.14,1.61-12.26,5s-4.73,7.74-4.73,13.33,1.5,9.78,4.51,12.9,7,4.52,12.15,4.52m49.25-46.24a20.66,20.66,0,0,1,2.79.22,7.93,7.93,0,0,1,2.05.54v13a9.16,9.16,0,0,0-2.91-1.4,15.22,15.22,0,0,0-4.73-.65,9.82,9.82,0,0,0-7.95,4q-3.22,4-3.23,12.26v27.63H348V107h12.9v8.6h.22a15.16,15.16,0,0,1,5.26-7,14,14,0,0,1,8.5-2.58m5.59,29c0-9,2.58-16.24,7.63-21.51s12.15-8,21.29-8c8.5,0,15.17,2.58,20,7.64s7.21,11.93,7.21,20.64-2.58,15.92-7.64,21.18-12,7.85-20.86,7.85c-8.49,0-15.16-2.47-20.21-7.41s-7.42-11.83-7.42-20.43m13.33-.44c0,5.7,1.29,10.11,3.87,13.12s6.24,4.52,11.08,4.52,8.28-1.51,10.64-4.52,3.66-7.52,3.66-13.44S421.71,124,419.24,121s-6.13-4.52-10.65-4.52c-4.73,0-8.39,1.62-11,4.73s-3.87,7.64-3.87,13.44m61.94-13.33a5.29,5.29,0,0,0,1.72,4.3c1.18,1.08,3.76,2.37,7.74,4,5.16,2,8.71,4.41,10.86,7a14.67,14.67,0,0,1,3.12,9.36,14.84,14.84,0,0,1-5.92,12.36c-4,3.12-9.24,4.73-16,4.73a40.14,40.14,0,0,1-7.52-.86,31.67,31.67,0,0,1-7-2.15V147.36a32.65,32.65,0,0,0,7.52,3.87,21.8,21.8,0,0,0,7.32,1.4,14.09,14.09,0,0,0,6.45-1.18,4.35,4.35,0,0,0,2-4.09,6,6,0,0,0-2.15-4.51c-1.4-1.19-4.19-2.58-8.17-4.2-4.73-1.93-8.07-4.19-10.11-6.66a15.82,15.82,0,0,1,2.9-21.62c3.87-3.11,9-4.73,15.27-4.73a36.29,36.29,0,0,1,6.45.65,29.11,29.11,0,0,1,5.92,1.61v12.26a23.32,23.32,0,0,0-5.92-2.9,18.71,18.71,0,0,0-6.77-1.19,9.72,9.72,0,0,0-5.7,1.4,4.31,4.31,0,0,0-2,3.87m28.92,13.77c0-9,2.58-16.24,7.64-21.51s12.15-8,21.29-8c8.49,0,15.16,2.58,20,7.64s7.2,11.93,7.2,20.64-2.58,15.92-7.63,21.18S521.06,163,512.25,163c-8.5,0-15.17-2.47-20.22-7.41s-7.42-11.83-7.42-20.43m13.44-.44c0,5.7,1.29,10.11,3.87,13.12s6.35,4.52,11.08,4.52,8.28-1.51,10.64-4.52,3.66-7.52,3.66-13.44S526,124,523.54,121s-6.13-4.52-10.65-4.52c-4.73,0-8.39,1.62-11,4.73s-3.87,7.64-3.87,13.44m85.38-17.09H564.29v44.08h-13V117.58h-9.14V107h9.14V99.41c0-5.7,1.83-10.43,5.59-14.09s8.49-5.48,14.41-5.48c1.5,0,2.9.1,4.19.21a14,14,0,0,1,3.23.76V91.88a14,14,0,0,0-2.26-.86,12.59,12.59,0,0,0-3.66-.54A8,8,0,0,0,566.55,93c-1.51,1.72-2.15,4.19-2.15,7.41v6.56h19.14V94.68l12.9-4v16.23h13v10.54h-13v25.59c0,3.34.64,5.7,1.83,7.1s3.11,2,5.8,2a9.51,9.51,0,0,0,2.69-.54,8.74,8.74,0,0,0,2.69-1.29V161a18.32,18.32,0,0,1-4.09,1.29,25.2,25.2,0,0,1-5.59.54c-5.37,0-9.46-1.4-12.15-4.3s-4.08-7.21-4.08-13v-28Z"/><rect class="cls-3" x="13.65" y="60.05" width="60.43" height="60.43"/><rect class="cls-4" x="80.21" y="60.05" width="60.43" height="60.43"/><rect class="cls-5" x="13.65" y="126.72" width="60.43" height="60.43"/><rect class="cls-6" x="80.21" y="126.72" width="60.43" height="60.43"/></g></svg>