<svg xmlns="http://www.w3.org/2000/svg" viewBox="0 0 623.62 255.12"><defs><style>.cls-1{fill:#fff;}.cls-2{fill:#0097ec;}.cls-3{fill:#0075b7;}.cls-4{fill:#0088d4;}.cls-5{fill:#8cc1df;}.cls-6{fill:#73c6f5;}.cls-7{fill:#73b3d7;}.cls-8{fill:#0084cf;}</style></defs><g id="BG"><rect class="cls-1" width="623.62" height="255.12"/></g><g id="Logo"><path class="cls-2" d="M311.81,14.18A113.38,113.38,0,1,1,198.43,127.56,113.38,113.38,0,0,1,311.81,14.18"/><polyline class="cls-3" points="246.01 125.13 272.73 133.35 262.22 170.26 230.07 138.1 246.01 125.13"/><path class="cls-2" d="M425.19,127.56A113.38,113.38,0,0,1,311.81,240.94c-1.8,0-3.6,0-5.39-.12h0c1.79.08,3.59.12,5.39.12A113.38,113.38,0,0,0,425.19,127.56h0"/><path class="cls-4" d="M353.35,50.46h0l-.58,1a14.06,14.06,0,0,1,2,.93,15.18,15.18,0,0,1,2,1.4l-3.37-3.36"/><path class="cls-5" d="M425.07,122.17c.08,1.79.12,3.59.12,5.39h0c0-1.8,0-3.6-.12-5.39h0"/><path class="cls-4" d="M358.56,55.66c6.22,7.34,7.65,21.85,4.09,39.21-.26,1.28-.55,2.55-.86,3.81,1.87.54,3.71,1.13,5.55,1.76C386,106.88,398,117,398,127.41c0,10.89-12.85,21.53-32.61,28.11-1,.35-2.11.69-3.2,1,.38,1.57.73,3.12,1,4.63,3.9,19.82.9,36.1-8.35,41.48a15.68,15.68,0,0,1-8.05,2c-8.47,0-19.19-5.24-30-14.6-1.6-1.38-3.15-2.81-4.66-4.27-1.2,1.16-2.4,2.28-3.6,3.33-11.25,9.89-22.73,15.47-31.68,15.47a16.19,16.19,0,0,1-8.22-2,13.46,13.46,0,0,1-1.37-.9l39.16,39.16c1.79.08,3.59.12,5.39.12A113.38,113.38,0,0,0,425.19,127.56c0-1.8,0-3.6-.12-5.39L358.56,55.66"/><path class="cls-6" d="M313.46,162.9q5.27,0,10.4-.23a154.66,154.66,0,0,1-10.12,12.51c-3.49-3.78-7-8-10.37-12.48,3.3.13,6.67.2,10.09.2m-35,34.3a9.1,9.1,0,0,1-4.56-1c-5.43-3.15-7.69-15.33-4.61-31.66q.54-2.9,1.26-5.75a172,172,0,0,0,23.23,3.38,178.86,178.86,0,0,0,14.8,18.38c-1.08,1-2.17,2.06-3.29,3-6.69,5.88-13.39,10-19.3,12.15h0a22.84,22.84,0,0,1-7.53,1.5m69.91.09c-6.16,0-15.39-4.37-25.17-12.83q-2.16-1.87-4.34-4A174.45,174.45,0,0,0,333.35,162a168.77,168.77,0,0,0,23.35-3.62q.53,2.15.93,4.2c1.73,8.76,2,16.68.83,22.88-1,5.56-3.09,9.27-5.64,10.76a8.72,8.72,0,0,1-4.41,1m-60-43.12a153.77,153.77,0,0,1-15.88-2.57c1.52-4.94,3.39-10.08,5.58-15.3q2.34,4.55,4.89,9t5.41,8.9M338.6,154q2.73-4.36,5.29-8.82t5-9.19a157.94,157.94,0,0,1,5.79,15.25A155.62,155.62,0,0,1,338.6,154m23.22-4.63a174.81,174.81,0,0,0-8.73-22,174,174,0,0,0,8.39-21.64q2.64.78,5.12,1.63c16,5.52,25.68,13.68,25.68,20,0,6.71-10.5,15.41-27.57,21.09-.94.32-1.91.62-2.89.91m-13-30.52q-2.38-4.56-5-9t-5.24-8.67c5.5.7,10.77,1.63,15.72,2.76-1.49,4.79-3.34,9.8-5.52,14.93m-70.67,0c-2.14-5.11-4-10.14-5.47-15,4.92-1.1,10.16-2,15.62-2.69-1.82,2.86-3.59,5.78-5.28,8.73s-3.31,5.94-4.87,9m11.25-5.26q3.93-6.86,8.36-13.38c5.13-.39,10.38-.6,15.7-.6s10.6.21,15.72.6q4.4,6.53,8.31,13.34t7.43,13.91q-3.45,7.14-7.41,14h0q-3.92,6.84-8.27,13.42c-5.11.36-10.4.55-15.78.55s-10.59-.16-15.61-.49q-4.47-6.56-8.43-13.44t-7.35-14q3.4-7.12,7.33-14h0m13.91-21.14c3.35-4.44,6.78-8.57,10.23-12.31a156.36,156.36,0,0,1,10.14,12.31q-5.12-.24-10.23-.24t-10.14.24M269.5,91.41c-3.24-16.65-1.09-29.21,4.33-32.37a8.79,8.79,0,0,1,4.46-1c6.66,0,16.86,5,27.5,14.47.86.77,1.72,1.58,2.59,2.41a176.37,176.37,0,0,0-14.69,18.27,178.73,178.73,0,0,0-23,3.6c-.44-1.77-.84-3.56-1.19-5.35h0m86.82,5.41a175.89,175.89,0,0,0-23.05-3.66A174.29,174.29,0,0,0,318.7,74.87q1.94-1.87,4-3.65c10-8.79,19.57-13.39,25.81-13.39a8.38,8.38,0,0,1,4.23,1c5.78,3.35,8,16.85,4.39,34.56-.23,1.15-.49,2.3-.77,3.44m-9.47-46.36c-8.6,0-19.59,5.49-30.67,15.18q-2.19,1.92-4.29,4C311,68.7,310,67.81,309,67c-11.67-10.42-23.36-16.32-32.43-16.32a15.84,15.84,0,0,0-8.1,2c-9,5.23-11.64,20.75-7.86,40.18.38,1.93.8,3.84,1.28,5.74-2.21.63-4.34,1.31-6.38,2-18.2,6.38-29.84,16.37-29.9,26.74v.16c0,6.4,4.5,12.8,12.13,18.31l-7.7-7.7,6.5-5.29a10,10,0,0,1-1.94-5.4c0-6.31,9.36-14.36,25-19.83q2.94-1,5.94-1.88a177.57,177.57,0,0,0,8.4,21.9q-1.24,2.7-2.37,5.39l1.17.36-10.51,36.91-2.52-2.53c-2.21,15.93.37,28.54,7.56,33.93a13.46,13.46,0,0,0,1.37.9,16.19,16.19,0,0,0,8.22,2c8.95,0,20.43-5.58,31.68-15.47,1.2-1.05,2.4-2.17,3.6-3.33,1.51,1.46,3.06,2.89,4.66,4.27,10.82,9.36,21.54,14.6,30,14.6a15.68,15.68,0,0,0,8.05-2c9.25-5.38,12.25-21.66,8.35-41.48-.3-1.51-.65-3.06-1-4.63,1.09-.32,2.16-.66,3.2-1C385.13,148.94,398,138.3,398,127.41c0-10.43-12-20.53-30.64-27-1.84-.63-3.68-1.22-5.55-1.76.31-1.26.6-2.53.86-3.81,3.56-17.36,2.13-31.87-4.09-39.21a16,16,0,0,0-1.84-1.84,15.18,15.18,0,0,0-2-1.4,14.06,14.06,0,0,0-2-.93,16.26,16.26,0,0,0-5.92-1"/><path class="cls-7" d="M236.57,132.81l-6.5,5.29,7.7,7.7a75,75,0,0,0,19.38,9.66c1.54.53,3.1,1,4.66,1.47q-.76,3.07-1.35,6.18c-.3,1.57-.55,3.11-.76,4.62l2.52,2.53,10.51-36.91-1.17-.36a173.8,173.8,0,0,0-6.14,16.81c-1.43-.41-2.85-.86-4.25-1.34-8.41-2.89-15.35-6.64-20.11-10.74a24.79,24.79,0,0,1-4.49-4.91"/><path class="cls-2" d="M265.53,105.7q-3,.85-5.94,1.88c-15.6,5.47-25,13.52-25,19.83a10,10,0,0,0,1.94,5.4l9.44-7.68L271.56,133q1.13-2.69,2.37-5.39a177.57,177.57,0,0,1-8.4-21.9m73.09-4.5q2.72,4.27,5.24,8.67t5,9c2.18-5.13,4-10.14,5.52-14.93-4.95-1.13-10.22-2.06-15.72-2.76m-50.32,0c-5.46.68-10.7,1.59-15.62,2.69,1.5,4.86,3.33,9.89,5.47,15q2.34-4.53,4.87-9c1.69-3,3.46-5.87,5.28-8.73m23.51,41.69a15.56,15.56,0,1,1,15.49-15.55,15.52,15.52,0,0,1-15.49,15.55m1.65-43.24c-5.32,0-10.57.21-15.7.6q-4.42,6.53-8.36,13.38h0q-3.93,6.84-7.33,14,3.4,7.13,7.35,14T297.85,155c5,.33,10.24.49,15.61.49s10.67-.19,15.78-.55q4.35-6.57,8.27-13.42h0q4-6.89,7.41-14-3.5-7.08-7.43-13.91t-8.31-13.34c-5.12-.39-10.39-.6-15.72-.6m.08-19.47c-3.45,3.74-6.88,7.87-10.23,12.31q5.07-.24,10.14-.24t10.23.24a156.36,156.36,0,0,0-10.14-12.31M278.29,58a8.79,8.79,0,0,0-4.46,1c-5.42,3.16-7.57,15.72-4.33,32.37h0c.35,1.79.75,3.58,1.19,5.35a178.73,178.73,0,0,1,23-3.6,176.37,176.37,0,0,1,14.69-18.27c-.87-.83-1.73-1.64-2.59-2.41C295.15,63,285,58,278.29,58m70.18-.17c-6.24,0-15.76,4.6-25.81,13.39q-2,1.77-4,3.65a174.29,174.29,0,0,1,14.57,18.29,175.89,175.89,0,0,1,23.05,3.66c.28-1.14.54-2.29.77-3.44,3.63-17.71,1.39-31.21-4.39-34.56a8.38,8.38,0,0,0-4.23-1"/><path class="cls-8" d="M246,125.13l-9.44,7.68a24.79,24.79,0,0,0,4.49,4.91c4.76,4.1,11.7,7.85,20.11,10.74,1.4.48,2.82.93,4.25,1.34A173.8,173.8,0,0,1,271.56,133L246,125.13"/><path class="cls-2" d="M323.86,162.67q-5.13.22-10.4.23c-3.42,0-6.79-.07-10.09-.2,3.4,4.51,6.88,8.7,10.37,12.48a154.66,154.66,0,0,0,10.12-12.51m-53.27-3.92q-.72,2.85-1.26,5.75c-3.08,16.33-.82,28.51,4.61,31.66a9.1,9.1,0,0,0,4.56,1,22.84,22.84,0,0,0,7.53-1.5h0c5.91-2.1,12.61-6.27,19.3-12.15,1.12-1,2.21-2,3.29-3a178.86,178.86,0,0,1-14.8-18.38,172,172,0,0,1-23.23-3.38m86.11-.34A168.77,168.77,0,0,1,333.35,162a174.45,174.45,0,0,1-14.45,18.46q2.18,2.1,4.34,4c9.78,8.46,19,12.83,25.17,12.83a8.72,8.72,0,0,0,4.41-1c2.55-1.49,4.61-5.2,5.64-10.76,1.14-6.2.9-14.12-.83-22.88q-.4-2.06-.93-4.2M278.16,136.3c-2.19,5.22-4.06,10.36-5.58,15.3a153.77,153.77,0,0,0,15.88,2.57q-2.81-4.38-5.41-8.9t-4.89-9m70.73-.27q-2.4,4.65-5,9.19T338.6,154a155.62,155.62,0,0,0,16.08-2.76A157.94,157.94,0,0,0,348.89,136m12.59-30.22a174,174,0,0,1-8.39,21.64,174.81,174.81,0,0,1,8.73,22c1-.29,1.95-.59,2.89-.91,17.07-5.68,27.57-14.38,27.57-21.09,0-6.29-9.72-14.45-25.68-20q-2.48-.85-5.12-1.63"/><path class="cls-6" d="M311.81,111.77a15.56,15.56,0,1,0,15.49,15.56,15.52,15.52,0,0,0-15.49-15.56"/></g></svg>