<svg xmlns="http://www.w3.org/2000/svg" viewBox="0 0 623.62 255.12"><defs><style>.cls-1{fill:#fff;}.cls-2{fill:#2d78bc;}</style></defs><title>skill</title><g id="BG"><rect class="cls-1" width="623.62" height="255.12"/></g><g id="Logo"><rect class="cls-2" x="280.1" y="176.34" width="17.75" height="50.16"/><rect class="cls-2" x="334.98" y="189.35" width="17.75" height="37.15"/><rect class="cls-2" x="357.23" y="176.34" width="17.75" height="50.16"/><rect class="cls-2" x="381.12" y="176.34" width="17.75" height="50.16"/><polygon class="cls-2" points="313.86 226.5 297.85 200.78 311.6 187.32 332.31 187.32 318.45 200.78 334.5 226.5 313.86 226.5"/><path class="cls-2" d="M259.79,202.53l-9.71-.29-1.48-.16a2.28,2.28,0,0,1-1.67-2.53c0-1.65,2.09-2.79,4.55-2.83,3.49,0,6.35.42,7,3.47h19.81c-.7-8.43-8.6-12.87-24.54-12.87H252a65.25,65.25,0,0,0-7.33.39l-.45,0c-.25,0-.5.05-.74.09-8.52,1-15.92,4.43-15.92,12,0,6.17,4.24,11.47,18.6,11.47l9.58.33c.52.05,1,.1,1.45.16a2.26,2.26,0,0,1,1.69,2.54c0,1.64-2.08,2.79-4.54,2.82-3.49,0-6.35-.41-7-3.46H227.56c.7,8.42,8.73,12.79,24.66,12.79,12,0,26-1.91,26-12.46C278.26,207.88,274,202.53,259.79,202.53Z"/><rect class="cls-2" x="334.98" y="176.34" width="17.75" height="10.98"/><path class="cls-2" d="M248.94,89c14.3,18.27,48.33,31.12,88.06,31.12,22.48,0,43.12-4.12,59.41-11C382.12,90.85,348.08,78,308.35,78,285.88,78,265.23,82.12,248.94,89Z"/><path class="cls-2" d="M360.14,81.6,377,35.53c-14.22-4.37-31.36-6.92-49.8-6.92-49.31,0-89.29,18.23-89.29,40.72,0,6.06,2.92,11.81,8.14,17C262.22,78.7,284.47,74,309,74c19,0,36.62,2.84,51.14,7.63Z"/><path class="cls-2" d="M376,148a89.85,89.85,0,0,0,8.39-5,32.15,32.15,0,0,0,12.35-26.78c-19.61,7.48-44.06,10.67-72.25,8.45-34.6-2.73-63.8-14.38-82.43-31.67-4.17,10.7-13.48,34.59-17.31,44.33,17.81,13.17,42.53,21.88,71.07,24.08,29.93,2.31,55.59-1.83,75.44-11C372.71,149.58,374.28,148.79,376,148Z"/></g></svg>