<?xml version="1.0" encoding="utf-8"?>
<!-- Generator: Adobe Illustrator 19.1.0, SVG Export Plug-In . SVG Version: 6.00 Build 0)  -->
<svg version="1.1" id="Ebene_1" xmlns="http://www.w3.org/2000/svg" xmlns:xlink="http://www.w3.org/1999/xlink" x="0px" y="0px"
	 width="119px" height="36.2px" viewBox="-222.4 404 119 36.2" style="enable-background:new -222.4 404 119 36.2;"
	 xml:space="preserve">
<style type="text/css">
	.st0{fill:#706F6F;}
	.st1{fill:#25408F;}
</style>
<g>
	<path class="st0" d="M-208.5,429c-1.9,0-2.4,0-4.1,0.1l-0.1-0.1l-0.4-2.4l-0.4-2.7c-0.3-1.9-0.4-2.3-0.6-4l-0.6,3.7l-0.6,3.2
		l-0.4,2.2l-0.1,0.1c-1.7,0-2.2,0-4,0.1l-0.1-0.1c-1-5-1.2-6.4-2.5-12.1l0.1-0.1c1.3,0,1.5,0,3-0.1l0.1,0.1l0.6,3.4l0.5,2.5
		c0.4,2.1,0.4,2.6,0.7,4.1l0.4-2.4l0.7-3.6l0.7-4l0.1-0.1l3.5-0.1l0.1,0.1l0.4,2.7l0.5,2.9c0.4,2,0.4,2.6,0.7,4.6l0.6-3l0.5-2.7
		c0.4-2,0.5-2.6,0.8-4.4l0.1-0.1c1.2,0,1.4,0,2.7-0.1l0.1,0.1c-1.9,7.6-2.2,8.9-2.8,12.1L-208.5,429z"/>
	<path class="st0" d="M-194.8,426.8l-0.1,2.1l-0.1,0.1h-7.8l-0.1-0.1c0.1-1.8,0.1-2.9,0.1-5.1c0-4.7,0-5.3-0.1-7l0.1-0.1h7.7
		l0.1,0.1l-0.1,2l-0.1,0.1c-2.1-0.1-2.5-0.1-4.5-0.1v2.8l4.3-0.1l0.1,0.1l-0.1,2l-0.1,0.1h-4.1v3c2.3,0,2.7,0,4.8-0.1V426.8z"/>
	<path class="st0" d="M-186.1,421.7c0.4,0.2,0.9,0.4,1.4,0.7c0.9,0.7,1.3,1.8,1.3,2.8c0,1.5-0.6,2.8-2.1,3.5
		c-1.1,0.5-2.4,0.5-2.9,0.5c-1.3,0-2.4-0.3-2.8-0.4c-0.2-0.1-0.4-0.1-0.6-0.2l-0.1-0.1l0.1-2.5l0.2-0.1c0.5,0.4,1.4,1.1,3,1.1
		c1.5,0,2.1-0.8,2.1-1.4c0-0.9-0.9-1.4-2.1-1.9l-0.6-0.2c-1-0.5-2.6-1.2-2.6-3.3c0-1.9,1.1-3.7,4.5-3.7c1.7,0,2.5,0.3,3.3,0.6
		l0.1,0.1l-0.3,2.3l-0.2,0.1c-0.7-0.4-1.4-1-2.8-1c-1.2,0-1.7,0.7-1.7,1.2c0,0.8,0.8,1.1,2.3,1.7L-186.1,421.7z"/>
	<path class="st0" d="M-175.2,419c0,1.1-0.1,1.7-0.1,2.6c0,2.4,0,4.9,0.1,7.3l-0.1,0.1c-1.5,0-1.8,0-3.1,0.1l-0.1-0.1
		c0.1-4.3,0.1-5.4,0.1-10l-2.9,0.1l-0.1-0.1l0.1-2.1l0.1-0.1h8.7l0.1,0.1l-0.1,2.2l-0.1,0.1L-175.2,419z"/>
	<path class="st0" d="M-165.6,421.4c0.5,0,0.9,0,1.4,0c0.8,0,1.6,0,2.3,0c0-2,0-2.6-0.1-4.5l0.1-0.1c1.5,0,1.7,0,3.1-0.1l0.1,0.1
		c0,1.3,0,2.2,0,3.4c0,2.9,0.1,5.8,0.2,8.7l-0.1,0.1c-1.5,0-1.9,0-3.2,0.1l-0.1-0.1c0.1-2.4,0.1-3,0.1-5.4c-0.7,0-1.4,0-2.1,0
		c-0.5,0-1.1,0-1.6,0"/>
	<path class="st0" d="M-143.4,422.9c0,1.5-0.4,3.8-2.1,5.3c-1,0.9-2.4,1.2-3.8,1.2c-0.9,0-2.7-0.2-4.1-1.4c-1.7-1.5-1.8-3.7-1.8-4.9
		c0-0.6,0.1-1.2,0.2-1.8c0.1-0.7,0.5-2.7,2.7-4c1-0.5,2.1-0.7,3.2-0.7c1.2,0,2.5,0.3,3.4,0.9c0.4,0.3,0.8,0.6,1.1,1
		C-144.2,418.9-143.4,420.1-143.4,422.9z M-149.2,418.7c-0.3,0-0.8,0.1-1.3,0.3c-0.8,0.5-1.3,1.6-1.3,3.7c0,1.6,0.2,4.4,2.6,4.4
		c2,0,2.6-1.9,2.5-4.5c0-0.4-0.1-1.1-0.2-1.7c-0.1-0.5-0.3-1-0.6-1.4C-147.9,419-148.5,418.7-149.2,418.7z"/>
	<path class="st0" d="M-129.7,416.8l-0.1,5.2v1.8c0,2.2-0.1,3.2-1,4.2c-1.3,1.4-3.2,1.4-3.9,1.4c-2.4,0-3.7-0.9-4.4-1.8
		c-0.6-0.8-0.7-1.8-0.8-3.6v-1.5c0-2.7,0-3.2-0.1-5.7l0.1-0.1c1.2,0,1.6,0,3.1-0.1l0.1,0.1c0,1.7-0.1,3.1-0.1,4.5c0,0.9,0,1.8,0,2.8
		c0,1.1,0.1,1.7,0.4,2.2c0.4,0.6,1.1,0.9,1.8,0.9c0.6,0,1.2-0.2,1.6-0.6c0.5-0.6,0.5-1.4,0.5-3.2c0-2.1-0.1-4.3-0.2-6.4l0.1-0.1
		c1,0,1.4,0,2.6-0.1L-129.7,416.8z"/>
	<path class="st0" d="M-120.4,421.7c0.4,0.2,0.9,0.4,1.4,0.7c0.9,0.7,1.3,1.8,1.3,2.8c0,1.5-0.6,2.8-2.1,3.5
		c-1.1,0.5-2.4,0.5-2.9,0.5c-1.3,0-2.4-0.3-2.8-0.4c-0.2-0.1-0.4-0.1-0.6-0.2l-0.1-0.1l0.1-2.5l0.2-0.1c0.5,0.4,1.4,1.1,3,1.1
		c1.5,0,2.1-0.8,2.1-1.4c0-0.9-0.9-1.4-2.2-1.9l-0.6-0.3c-1-0.5-2.6-1.2-2.6-3.3c0-1.9,1.1-3.7,4.5-3.7c1.7,0,2.5,0.3,3.3,0.6
		l0.1,0.1l-0.1,2.3l-0.2,0.1c-0.7-0.4-1.4-1-2.8-1c-1.2,0-1.7,0.7-1.7,1.2c0,0.8,0.8,1.1,2.3,1.7L-120.4,421.7z"/>
	<path class="st0" d="M-106.1,426.8l-0.1,2.1l-0.1,0.1h-7.8l-0.1-0.1c0.1-1.8,0.1-2.9,0.1-5.1c0-4.7,0-5.3-0.1-7l0.1-0.1h7.7
		l0.1,0.1l-0.1,2l-0.1,0.1c-2.1-0.1-2.5-0.1-4.5-0.1v2.8l4.3-0.1l0.1,0.1l-0.1,2l-0.1,0.1h-4.2v3c2.3,0,2.7,0,4.8-0.1L-106.1,426.8z
		"/>
</g>
<g>
	<path class="st1" d="M-170.8,422.9c0-10.5,15.5-18.9,34.7-18.9c15.1,0,27.9,5.3,32.7,12.6c-5.3-6.4-17.1-10.9-30.8-10.9
		c-18.7,0-33.8,8.2-33.8,18.4c0,6.9,7.1,13,17.5,16.1C-162.5,437.2-170.8,430.6-170.8,422.9z"/>
</g>
</svg>
