<?xml version="1.0" encoding="utf-8"?>
<!-- Generator: Adobe Illustrator 16.0.3, SVG Export Plug-In . SVG Version: 6.00 Build 0)  -->
<!DOCTYPE svg PUBLIC "-//W3C//DTD SVG 1.1//EN" "http://www.w3.org/Graphics/SVG/1.1/DTD/svg11.dtd">
<svg version="1.1" xmlns="http://www.w3.org/2000/svg" xmlns:xlink="http://www.w3.org/1999/xlink" x="0px" y="0px" width="623.6px"
	 height="255.1px" viewBox="0 0 623.6 255.1" style="enable-background:new 0 0 623.6 255.1;" xml:space="preserve">
<style type="text/css">
<![CDATA[
	.st0{clip-path:url(#SVGID_2_);fill:#426076;}
	.st1{clip-path:url(#SVGID_2_);fill-rule:evenodd;clip-rule:evenodd;fill:#4CB6C6;}
	.st2{clip-path:url(#SVGID_2_);fill:#4CB6C6;}
	.st3{fill:#FFFFFF;}
	.st4{clip-path:url(#SVGID_2_);fill-rule:evenodd;clip-rule:evenodd;fill:#426076;}
]]>
</style>
<g id="BG">
	<rect class="st3" width="623.6" height="255.1"/>
</g>
<g id="Logo">
	<g>
		<defs>
			<rect id="SVGID_1_" x="-90.9" y="-98.9" width="805.3" height="453"/>
		</defs>
		<clipPath id="SVGID_2_">
			<use xlink:href="#SVGID_1_"  style="overflow:visible;"/>
		</clipPath>
		<path class="st0" d="M190.7,196.1c4.6,0,6.1,3.4,6.1,6.8c0,3.1-1.3,6.8-6.2,6.8h-3.5v-13.6H190.7z M195.5,202.9
			c0-2.8-1.3-5.6-4.5-5.6h-2.5v11.1h2.3C194.4,208.5,195.5,205.6,195.5,202.9"/>
		<path class="st0" d="M199.8,196.9c0-0.5,0.4-0.9,0.9-0.9c0.5,0,0.9,0.4,0.9,0.9c0,0.5-0.4,0.9-0.9,0.9
			C200.2,197.8,199.8,197.4,199.8,196.9 M200,199.8h1.4v9.9H200V199.8z"/>
		<path class="st0" d="M207,212.8c3.2-0.2,3.9-1.3,3.9-2.7v-1.5c-0.6,0.8-1.4,1.4-2.7,1.4c-2.1,0-4.1-1.7-4.1-5.2
			c0-3.3,1.7-5.2,4.1-5.2c1.5,0,2.3,0.8,2.6,1.2v-0.9h1.4v9.8c0,3.3-2.2,4.2-4.7,4.3L207,212.8z M211,207.1v-4.8
			c-0.6-1-1.7-1.5-2.4-1.5c-2,0-2.9,1.4-2.9,4c0,2.5,1.3,4,2.9,4C209.4,208.7,210.4,208.1,211,207.1"/>
		<path class="st0" d="M215.6,196.9c0-0.5,0.4-0.9,0.9-0.9c0.5,0,0.9,0.4,0.9,0.9c0,0.5-0.4,0.9-0.9,0.9
			C216,197.8,215.6,197.4,215.6,196.9 M215.8,199.8h1.4v9.9h-1.4V199.8z"/>
		<path class="st0" d="M221.2,207.7V201h-1.7v-1.2h1.7v-3.4l1.4-0.7v4.1h2.5v1.2h-2.5v6.1c0,0.9,0.1,1.6,1.1,1.6
			c0.7,0,1.1-0.3,1.5-0.6l-0.2,1.4c-0.5,0.3-1,0.4-1.8,0.4C221.8,209.9,221.2,209,221.2,207.7"/>
		<path class="st0" d="M233.4,208.7c-0.8,0.7-1.8,1.2-2.9,1.2c-2,0-3.4-1.1-3.4-3.4c0-2.3,1.7-3.3,3.6-3.3c0.8,0,1.7,0.2,2.7,0.7
			v-0.8c0-2-1.1-2.4-2.2-2.4c-1,0-2.2,0.6-2.9,1.1l-0.4-1.2c0.8-0.5,2.1-1.1,3.5-1.1c1.4,0,3.3,0.6,3.3,3.4v6.7h-1.3V208.7z
			 M233.4,207.2v-1.9c-0.6-0.4-1.7-0.8-2.5-0.8c-1.3,0-2.5,0.7-2.5,2.1c0,1.3,0.8,2.2,2.2,2.2C231.8,208.8,232.8,208,233.4,207.2"/>
		<polygon class="st0" points="237.8,196.4 239.2,195.7 239.2,209.7 237.8,209.7 		"/>
		<polygon class="st2" points="250.9,209.7 249.6,209.7 249.6,197.4 245.9,197.4 245.9,196.1 254.7,196.1 254.7,197.4 250.9,197.4 
					"/>
		<path class="st2" d="M255.3,204.7c0-3.3,1.8-5.2,4.3-5.2c2.1,0,3.9,1.5,3.9,4.8c0,0.2,0,0.5,0,0.9h-6.8c0.2,2,1.2,3.4,2.9,3.4
			c0.7,0,1.5-0.2,2.2-0.8l0.7,0.9c-0.8,0.6-1.9,1.1-3,1.1C256.9,209.9,255.3,207.5,255.3,204.7 M262.1,204.1c0-2.7-1.5-3.3-2.5-3.3
			c-1.6,0-2.8,1-2.9,3.3H262.1z"/>
		<path class="st2" d="M265.5,204.8c0-3.3,1.5-5.2,4.1-5.2c1.5,0,2.6,0.7,3.2,2.1l-1.2,0.5c-0.3-0.8-0.9-1.3-2-1.3
			c-1.8,0-2.6,1.5-2.6,4c0,2.5,0.8,4,2.6,4c1.1,0,1.9-0.6,2.2-1.5l1.2,0.5c-0.5,1.4-1.8,2.3-3.5,2.3
			C267.1,209.9,265.5,208.1,265.5,204.8"/>
		<path class="st2" d="M275.5,196.3l1.4-0.6v5.2c0.6-0.9,1.5-1.3,2.6-1.3c2.4,0,3.6,1.4,3.6,4.7v5.5h-1.4v-6.1c0-2.1-1-2.9-2.3-2.9
			c-1.4,0-2.4,0.7-2.4,2.8v6.1h-1.4V196.3z"/>
		<path class="st2" d="M292.5,203.7c0-2.1-1-2.9-2.3-2.9c-1.4,0-2.4,0.7-2.4,2.8v6.1h-1.4v-9.9h1.4v1.1c0.6-0.9,1.5-1.3,2.6-1.3
			c2.4,0,3.6,1.4,3.6,4.7v5.5h-1.4V203.7z"/>
		<path class="st2" d="M296.6,204.8c0-3.3,1.7-5.2,4.2-5.2c2.5,0,4.2,1.9,4.2,5.2c0,3.3-1.7,5.2-4.2,5.2
			C298.3,209.9,296.6,208.1,296.6,204.8 M303.6,204.7c0-2.5-1-4-2.8-4c-1.8,0-2.8,1.4-2.8,4c0,2.5,1,4,2.8,4
			C302.6,208.7,303.6,207.2,303.6,204.7"/>
		<polygon class="st2" points="308,196.4 309.3,195.7 309.3,209.7 308,209.7 		"/>
		<path class="st2" d="M312.2,204.8c0-3.3,1.7-5.2,4.2-5.2s4.3,1.9,4.3,5.2c0,3.3-1.7,5.2-4.3,5.2S312.2,208.1,312.2,204.8
			 M319.3,204.7c0-2.5-1-4-2.8-4c-1.8,0-2.8,1.4-2.8,4c0,2.5,1,4,2.8,4C318.3,208.7,319.3,207.2,319.3,204.7"/>
		<path class="st2" d="M325.7,212.8c3.2-0.2,3.9-1.3,3.9-2.7v-1.5c-0.6,0.8-1.4,1.4-2.7,1.4c-2.1,0-4.1-1.7-4.1-5.2
			c0-3.3,1.7-5.2,4.1-5.2c1.5,0,2.3,0.8,2.6,1.2v-0.9h1.4v9.8c0,3.3-2.2,4.2-4.7,4.3L325.7,212.8z M329.6,207.1v-4.8
			c-0.6-1-1.7-1.5-2.4-1.5c-2,0-2.9,1.4-2.9,4c0,2.5,1.3,4,2.9,4C328,208.7,329.1,208.1,329.6,207.1"/>
		<path class="st2" d="M337.1,209.4l-3.6-9.6h1.4l2.5,7c0.1,0.3,0.2,0.7,0.3,1l0.3-1l2.5-7h1.5l-5.1,13.7h-1.3L337.1,209.4z"/>
		<rect x="349.3" y="196.1" class="st0" width="1.4" height="13.6"/>
		<path class="st0" d="M360.6,203.7c0-2.1-1-2.9-2.3-2.9c-1.4,0-2.4,0.7-2.4,2.8v6.1h-1.4v-9.9h1.4v1.1c0.6-0.9,1.5-1.3,2.6-1.3
			c2.4,0,3.6,1.4,3.6,4.7v5.5h-1.4V203.7z"/>
		<path class="st0" d="M371.4,203.7c0-2.1-1-2.9-2.3-2.9c-1.4,0-2.4,0.7-2.4,2.8v6.1h-1.4v-9.9h1.4v1.1c0.6-0.9,1.5-1.3,2.6-1.3
			c2.4,0,3.5,1.4,3.5,4.7v5.5h-1.4V203.7z"/>
		<path class="st0" d="M375.5,204.8c0-3.3,1.7-5.2,4.2-5.2c2.5,0,4.2,1.9,4.2,5.2c0,3.3-1.7,5.2-4.2,5.2
			C377.2,209.9,375.5,208.1,375.5,204.8 M382.6,204.7c0-2.5-1-4-2.8-4s-2.8,1.4-2.8,4c0,2.5,1,4,2.8,4
			C381.6,208.7,382.6,207.2,382.6,204.7"/>
		<path class="st0" d="M385.8,199.8h1.4l2.4,6.8c0.1,0.3,0.2,0.7,0.3,1c0.1-0.4,0.2-0.7,0.3-1l2.3-6.8h1.4l-3.6,9.9h-1L385.8,199.8z
			"/>
		<path class="st0" d="M401.9,208.7c-0.8,0.7-1.8,1.2-2.9,1.2c-2,0-3.4-1.1-3.4-3.4c0-2.3,1.7-3.3,3.6-3.3c0.8,0,1.7,0.2,2.7,0.7
			v-0.8c0-2-1.1-2.4-2.2-2.4c-1,0-2.2,0.6-2.9,1.1l-0.4-1.2c0.8-0.5,2.1-1.1,3.5-1.1c1.4,0,3.3,0.6,3.3,3.4v6.7h-1.3V208.7z
			 M401.9,207.2v-1.9c-0.6-0.4-1.7-0.8-2.5-0.8c-1.3,0-2.5,0.7-2.5,2.1c0,1.3,0.8,2.2,2.2,2.2C400.3,208.8,401.3,208,401.9,207.2"/>
		<path class="st0" d="M406.8,207.7V201h-1.7v-1.2h1.7v-3.4l1.4-0.7v4.1h2.5v1.2h-2.5v6.1c0,0.9,0.1,1.6,1.1,1.6
			c0.7,0,1.1-0.3,1.5-0.6l-0.2,1.4c-0.5,0.3-1,0.4-1.8,0.4C407.3,209.9,406.8,209,406.8,207.7"/>
		<path class="st0" d="M413.2,196.9c0-0.5,0.4-0.9,0.9-0.9c0.5,0,0.9,0.4,0.9,0.9c0,0.5-0.4,0.9-0.9,0.9
			C413.6,197.8,413.2,197.4,413.2,196.9 M413.4,199.8h1.4v9.9h-1.4V199.8z"/>
		<path class="st0" d="M417.6,204.8c0-3.3,1.7-5.2,4.2-5.2c2.5,0,4.2,1.9,4.2,5.2c0,3.3-1.7,5.2-4.2,5.2
			C419.3,209.9,417.6,208.1,417.6,204.8 M424.7,204.7c0-2.5-1-4-2.8-4c-1.8,0-2.8,1.4-2.8,4c0,2.5,1,4,2.8,4
			C423.7,208.7,424.7,207.2,424.7,204.7"/>
		<path class="st0" d="M435,203.7c0-2.1-1-2.9-2.3-2.9c-1.4,0-2.4,0.7-2.4,2.8v6.1h-1.4v-9.9h1.4v1.1c0.6-0.9,1.5-1.3,2.6-1.3
			c2.4,0,3.5,1.4,3.5,4.7v5.5H435V203.7z"/>
		<polygon class="st4" points="279.2,50 254.5,130 266.1,173.6 312.3,173.6 		"/>
		<polygon class="st4" points="73,40.2 119.2,40.2 155,173.6 108.8,173.6 		"/>
		<polygon class="st4" points="150.1,40.2 196.3,40.2 232,173.6 185.8,173.6 		"/>
		<polygon class="st1" points="150.1,40.2 196.3,40.2 155,173.6 108.8,173.6 		"/>
		<polygon class="st1" points="227.1,40.2 273.3,40.2 232,173.6 185.8,173.6 		"/>
		<polygon class="st4" points="307.4,40.2 353.6,40.2 389.4,173.6 343.2,173.6 		"/>
		<polygon class="st1" points="307.4,40.2 353.6,40.2 312.3,173.6 266.1,173.6 		"/>
		<polygon class="st1" points="384.4,40.2 430.6,40.2 389.4,173.6 343.2,173.6 		"/>
		<path class="st0" d="M516.7,130.9H487l0,0c-13,0-23.6-10.6-23.6-23.6c0-13,10.6-23.6,23.6-23.6c0.1,0,0.3,0,0.4,0V41.2
			c-0.1,0-0.3,0-0.4,0c-36.4,0-66.1,29.6-66.1,66.1c0,36.1,29,65.5,65,66v0h1.1h0l0,0h29.7V130.9z"/>
		<polygon class="st1" points="504.3,104.6 482.9,173.6 529.2,173.6 550.5,104.6 		"/>
		<path class="st2" d="M487.1,41.2L487.1,41.2c-42.6,0.2-66.1,33.5-66.1,66.1c0,15.8,6.1,27.7,6.1,27.7c8.1-56.6,55.4-51.9,60-51.4
			v0h43.6l13.1-42.5H487.1z"/>
	</g>
</g>
</svg>
